<?xml version="1.0" encoding="utf-8" standalone="no"?>
<!DOCTYPE svg PUBLIC "-//W3C//DTD SVG 1.1//EN"
  "http://www.w3.org/Graphics/SVG/1.1/DTD/svg11.dtd">
<!-- Created with matplotlib (https://matplotlib.org/) -->
<svg height="432pt" version="1.1" viewBox="0 0 864 432" width="864pt" xmlns="http://www.w3.org/2000/svg" xmlns:xlink="http://www.w3.org/1999/xlink">
 <defs>
  <style type="text/css">
*{stroke-linecap:butt;stroke-linejoin:round;}
  </style>
 </defs>
 <g id="figure_1">
  <g id="patch_1">
   <path d="M 0 432 
L 864 432 
L 864 0 
L 0 0 
z
" style="fill:#ffffff;"/>
  </g>
  <g id="axes_1">
   <g id="patch_2">
    <path d="M 108 378 
L 777.6 378 
L 777.6 51.84 
L 108 51.84 
z
" style="fill:#ffffff;"/>
   </g>
   <g id="patch_3">
    <path clip-path="url(#p6eca7305f4)" d="M 138.436364 74660.829431 
L 150.859369 74660.829431 
L 150.859369 137.059865 
L 138.436364 137.059865 
z
" style="fill:#1f77b4;opacity:0.6;stroke:#000000;stroke-linejoin:miter;"/>
   </g>
   <g id="patch_4">
    <path clip-path="url(#p6eca7305f4)" d="M 150.859369 74660.829431 
L 163.282375 74660.829431 
L 163.282375 158.193862 
L 150.859369 158.193862 
z
" style="fill:#1f77b4;opacity:0.6;stroke:#000000;stroke-linejoin:miter;"/>
   </g>
   <g id="patch_5">
    <path clip-path="url(#p6eca7305f4)" d="M 163.282375 74660.829431 
L 175.70538 74660.829431 
L 175.70538 175.473462 
L 163.282375 175.473462 
z
" style="fill:#1f77b4;opacity:0.6;stroke:#000000;stroke-linejoin:miter;"/>
   </g>
   <g id="patch_6">
    <path clip-path="url(#p6eca7305f4)" d="M 175.70538 74660.829431 
L 188.128386 74660.829431 
L 188.128386 185.402773 
L 175.70538 185.402773 
z
" style="fill:#1f77b4;opacity:0.6;stroke:#000000;stroke-linejoin:miter;"/>
   </g>
   <g id="patch_7">
    <path clip-path="url(#p6eca7305f4)" d="M 188.128386 74660.829431 
L 200.551391 74660.829431 
L 200.551391 188.991697 
L 188.128386 188.991697 
z
" style="fill:#1f77b4;opacity:0.6;stroke:#000000;stroke-linejoin:miter;"/>
   </g>
   <g id="patch_8">
    <path clip-path="url(#p6eca7305f4)" d="M 200.551391 74660.829431 
L 212.974397 74660.829431 
L 212.974397 200.024351 
L 200.551391 200.024351 
z
" style="fill:#1f77b4;opacity:0.6;stroke:#000000;stroke-linejoin:miter;"/>
   </g>
   <g id="patch_9">
    <path clip-path="url(#p6eca7305f4)" d="M 212.974397 74660.829431 
L 225.397403 74660.829431 
L 225.397403 197.839284 
L 212.974397 197.839284 
z
" style="fill:#1f77b4;opacity:0.6;stroke:#000000;stroke-linejoin:miter;"/>
   </g>
   <g id="patch_10">
    <path clip-path="url(#p6eca7305f4)" d="M 225.397403 74660.829431 
L 237.820408 74660.829431 
L 237.820408 200.646886 
L 225.397403 200.646886 
z
" style="fill:#1f77b4;opacity:0.6;stroke:#000000;stroke-linejoin:miter;"/>
   </g>
   <g id="patch_11">
    <path clip-path="url(#p6eca7305f4)" d="M 237.820408 74660.829431 
L 250.243414 74660.829431 
L 250.243414 203.038132 
L 237.820408 203.038132 
z
" style="fill:#1f77b4;opacity:0.6;stroke:#000000;stroke-linejoin:miter;"/>
   </g>
   <g id="patch_12">
    <path clip-path="url(#p6eca7305f4)" d="M 250.243414 74660.829431 
L 262.666419 74660.829431 
L 262.666419 203.722265 
L 250.243414 203.722265 
z
" style="fill:#1f77b4;opacity:0.6;stroke:#000000;stroke-linejoin:miter;"/>
   </g>
   <g id="patch_13">
    <path clip-path="url(#p6eca7305f4)" d="M 262.666419 74660.829431 
L 275.089425 74660.829431 
L 275.089425 195.434322 
L 262.666419 195.434322 
z
" style="fill:#1f77b4;opacity:0.6;stroke:#000000;stroke-linejoin:miter;"/>
   </g>
   <g id="patch_14">
    <path clip-path="url(#p6eca7305f4)" d="M 275.089425 74660.829431 
L 287.51243 74660.829431 
L 287.51243 198.814194 
L 275.089425 198.814194 
z
" style="fill:#1f77b4;opacity:0.6;stroke:#000000;stroke-linejoin:miter;"/>
   </g>
   <g id="patch_15">
    <path clip-path="url(#p6eca7305f4)" d="M 287.51243 74660.829431 
L 299.935436 74660.829431 
L 299.935436 202.589972 
L 287.51243 202.589972 
z
" style="fill:#1f77b4;opacity:0.6;stroke:#000000;stroke-linejoin:miter;"/>
   </g>
   <g id="patch_16">
    <path clip-path="url(#p6eca7305f4)" d="M 299.935436 74660.829431 
L 312.358442 74660.829431 
L 312.358442 211.798535 
L 299.935436 211.798535 
z
" style="fill:#1f77b4;opacity:0.6;stroke:#000000;stroke-linejoin:miter;"/>
   </g>
   <g id="patch_17">
    <path clip-path="url(#p6eca7305f4)" d="M 312.358442 74660.829431 
L 324.781447 74660.829431 
L 324.781447 202.813274 
L 312.358442 202.813274 
z
" style="fill:#1f77b4;opacity:0.6;stroke:#000000;stroke-linejoin:miter;"/>
   </g>
   <g id="patch_18">
    <path clip-path="url(#p6eca7305f4)" d="M 324.781447 74660.829431 
L 337.204453 74660.829431 
L 337.204453 195.434322 
L 324.781447 195.434322 
z
" style="fill:#1f77b4;opacity:0.6;stroke:#000000;stroke-linejoin:miter;"/>
   </g>
   <g id="patch_19">
    <path clip-path="url(#p6eca7305f4)" d="M 337.204453 74660.829431 
L 349.627458 74660.829431 
L 349.627458 205.135647 
L 337.204453 205.135647 
z
" style="fill:#1f77b4;opacity:0.6;stroke:#000000;stroke-linejoin:miter;"/>
   </g>
   <g id="patch_20">
    <path clip-path="url(#p6eca7305f4)" d="M 349.627458 74660.829431 
L 362.050464 74660.829431 
L 362.050464 239.635538 
L 349.627458 239.635538 
z
" style="fill:#1f77b4;opacity:0.6;stroke:#000000;stroke-linejoin:miter;"/>
   </g>
   <g id="patch_21">
    <path clip-path="url(#p6eca7305f4)" d="M 362.050464 74660.829431 
L 374.473469 74660.829431 
L 374.473469 288.876891 
L 362.050464 288.876891 
z
" style="fill:#1f77b4;opacity:0.6;stroke:#000000;stroke-linejoin:miter;"/>
   </g>
   <g id="patch_22">
    <path clip-path="url(#p6eca7305f4)" d="M 374.473469 74660.829431 
L 386.896475 74660.829431 
L 386.896475 311.242713 
L 374.473469 311.242713 
z
" style="fill:#1f77b4;opacity:0.6;stroke:#000000;stroke-linejoin:miter;"/>
   </g>
   <g id="patch_23">
    <path clip-path="url(#p6eca7305f4)" d="M 386.896475 74660.829431 
L 399.319481 74660.829431 
L 399.319481 340.808723 
L 386.896475 340.808723 
z
" style="fill:#1f77b4;opacity:0.6;stroke:#000000;stroke-linejoin:miter;"/>
   </g>
   <g id="patch_24">
    <path clip-path="url(#p6eca7305f4)" d="M 399.319481 74660.829431 
L 411.742486 74660.829431 
L 411.742486 340.808723 
L 399.319481 340.808723 
z
" style="fill:#1f77b4;opacity:0.6;stroke:#000000;stroke-linejoin:miter;"/>
   </g>
   <g id="patch_25">
    <path clip-path="url(#p6eca7305f4)" d="M 411.742486 74660.829431 
L 424.165492 74660.829431 
L 424.165492 363.174545 
L 411.742486 363.174545 
z
" style="fill:#1f77b4;opacity:0.6;stroke:#000000;stroke-linejoin:miter;"/>
   </g>
   <g id="patch_26">
    <path clip-path="url(#p6eca7305f4)" d="M 424.165492 74660.829431 
L 436.588497 74660.829431 
L 436.588497 74660.829431 
L 424.165492 74660.829431 
z
" style="fill:#1f77b4;opacity:0.6;stroke:#000000;stroke-linejoin:miter;"/>
   </g>
   <g id="patch_27">
    <path clip-path="url(#p6eca7305f4)" d="M 436.588497 74660.829431 
L 449.011503 74660.829431 
L 449.011503 363.174545 
L 436.588497 363.174545 
z
" style="fill:#1f77b4;opacity:0.6;stroke:#000000;stroke-linejoin:miter;"/>
   </g>
   <g id="patch_28">
    <path clip-path="url(#p6eca7305f4)" d="M 449.011503 74660.829431 
L 461.434508 74660.829431 
L 461.434508 363.174545 
L 449.011503 363.174545 
z
" style="fill:#1f77b4;opacity:0.6;stroke:#000000;stroke-linejoin:miter;"/>
   </g>
   <g id="patch_29">
    <path clip-path="url(#p6eca7305f4)" d="M 461.434508 74660.829431 
L 473.857514 74660.829431 
L 473.857514 340.808723 
L 461.434508 340.808723 
z
" style="fill:#1f77b4;opacity:0.6;stroke:#000000;stroke-linejoin:miter;"/>
   </g>
   <g id="patch_30">
    <path clip-path="url(#p6eca7305f4)" d="M 473.857514 74660.829431 
L 486.280519 74660.829431 
L 486.280519 340.808723 
L 473.857514 340.808723 
z
" style="fill:#1f77b4;opacity:0.6;stroke:#000000;stroke-linejoin:miter;"/>
   </g>
   <g id="patch_31">
    <path clip-path="url(#p6eca7305f4)" d="M 486.280519 74660.829431 
L 498.703525 74660.829431 
L 498.703525 363.174545 
L 486.280519 363.174545 
z
" style="fill:#1f77b4;opacity:0.6;stroke:#000000;stroke-linejoin:miter;"/>
   </g>
   <g id="patch_32">
    <path clip-path="url(#p6eca7305f4)" d="M 498.703525 74660.829431 
L 511.126531 74660.829431 
L 511.126531 363.174545 
L 498.703525 363.174545 
z
" style="fill:#1f77b4;opacity:0.6;stroke:#000000;stroke-linejoin:miter;"/>
   </g>
   <g id="patch_33">
    <path clip-path="url(#p6eca7305f4)" d="M 511.126531 74660.829431 
L 523.549536 74660.829431 
L 523.549536 74660.829431 
L 511.126531 74660.829431 
z
" style="fill:#1f77b4;opacity:0.6;stroke:#000000;stroke-linejoin:miter;"/>
   </g>
   <g id="patch_34">
    <path clip-path="url(#p6eca7305f4)" d="M 523.549536 74660.829431 
L 535.972542 74660.829431 
L 535.972542 74660.829431 
L 523.549536 74660.829431 
z
" style="fill:#1f77b4;opacity:0.6;stroke:#000000;stroke-linejoin:miter;"/>
   </g>
   <g id="patch_35">
    <path clip-path="url(#p6eca7305f4)" d="M 535.972542 74660.829431 
L 548.395547 74660.829431 
L 548.395547 74660.829431 
L 535.972542 74660.829431 
z
" style="fill:#1f77b4;opacity:0.6;stroke:#000000;stroke-linejoin:miter;"/>
   </g>
   <g id="patch_36">
    <path clip-path="url(#p6eca7305f4)" d="M 548.395547 74660.829431 
L 560.818553 74660.829431 
L 560.818553 340.808723 
L 548.395547 340.808723 
z
" style="fill:#1f77b4;opacity:0.6;stroke:#000000;stroke-linejoin:miter;"/>
   </g>
   <g id="patch_37">
    <path clip-path="url(#p6eca7305f4)" d="M 560.818553 74660.829431 
L 573.241558 74660.829431 
L 573.241558 74660.829431 
L 560.818553 74660.829431 
z
" style="fill:#1f77b4;opacity:0.6;stroke:#000000;stroke-linejoin:miter;"/>
   </g>
   <g id="patch_38">
    <path clip-path="url(#p6eca7305f4)" d="M 573.241558 74660.829431 
L 585.664564 74660.829431 
L 585.664564 74660.829431 
L 573.241558 74660.829431 
z
" style="fill:#1f77b4;opacity:0.6;stroke:#000000;stroke-linejoin:miter;"/>
   </g>
   <g id="patch_39">
    <path clip-path="url(#p6eca7305f4)" d="M 585.664564 74660.829431 
L 598.08757 74660.829431 
L 598.08757 74660.829431 
L 585.664564 74660.829431 
z
" style="fill:#1f77b4;opacity:0.6;stroke:#000000;stroke-linejoin:miter;"/>
   </g>
   <g id="patch_40">
    <path clip-path="url(#p6eca7305f4)" d="M 598.08757 74660.829431 
L 610.510575 74660.829431 
L 610.510575 74660.829431 
L 598.08757 74660.829431 
z
" style="fill:#1f77b4;opacity:0.6;stroke:#000000;stroke-linejoin:miter;"/>
   </g>
   <g id="patch_41">
    <path clip-path="url(#p6eca7305f4)" d="M 610.510575 74660.829431 
L 622.933581 74660.829431 
L 622.933581 74660.829431 
L 610.510575 74660.829431 
z
" style="fill:#1f77b4;opacity:0.6;stroke:#000000;stroke-linejoin:miter;"/>
   </g>
   <g id="patch_42">
    <path clip-path="url(#p6eca7305f4)" d="M 622.933581 74660.829431 
L 635.356586 74660.829431 
L 635.356586 363.174545 
L 622.933581 363.174545 
z
" style="fill:#1f77b4;opacity:0.6;stroke:#000000;stroke-linejoin:miter;"/>
   </g>
   <g id="patch_43">
    <path clip-path="url(#p6eca7305f4)" d="M 635.356586 74660.829431 
L 647.779592 74660.829431 
L 647.779592 74660.829431 
L 635.356586 74660.829431 
z
" style="fill:#1f77b4;opacity:0.6;stroke:#000000;stroke-linejoin:miter;"/>
   </g>
   <g id="patch_44">
    <path clip-path="url(#p6eca7305f4)" d="M 647.779592 74660.829431 
L 660.202597 74660.829431 
L 660.202597 74660.829431 
L 647.779592 74660.829431 
z
" style="fill:#1f77b4;opacity:0.6;stroke:#000000;stroke-linejoin:miter;"/>
   </g>
   <g id="patch_45">
    <path clip-path="url(#p6eca7305f4)" d="M 660.202597 74660.829431 
L 672.625603 74660.829431 
L 672.625603 74660.829431 
L 660.202597 74660.829431 
z
" style="fill:#1f77b4;opacity:0.6;stroke:#000000;stroke-linejoin:miter;"/>
   </g>
   <g id="patch_46">
    <path clip-path="url(#p6eca7305f4)" d="M 672.625603 74660.829431 
L 685.048609 74660.829431 
L 685.048609 74660.829431 
L 672.625603 74660.829431 
z
" style="fill:#1f77b4;opacity:0.6;stroke:#000000;stroke-linejoin:miter;"/>
   </g>
   <g id="patch_47">
    <path clip-path="url(#p6eca7305f4)" d="M 685.048609 74660.829431 
L 697.471614 74660.829431 
L 697.471614 74660.829431 
L 685.048609 74660.829431 
z
" style="fill:#1f77b4;opacity:0.6;stroke:#000000;stroke-linejoin:miter;"/>
   </g>
   <g id="patch_48">
    <path clip-path="url(#p6eca7305f4)" d="M 697.471614 74660.829431 
L 709.89462 74660.829431 
L 709.89462 340.808723 
L 697.471614 340.808723 
z
" style="fill:#1f77b4;opacity:0.6;stroke:#000000;stroke-linejoin:miter;"/>
   </g>
   <g id="patch_49">
    <path clip-path="url(#p6eca7305f4)" d="M 709.89462 74660.829431 
L 722.317625 74660.829431 
L 722.317625 74660.829431 
L 709.89462 74660.829431 
z
" style="fill:#1f77b4;opacity:0.6;stroke:#000000;stroke-linejoin:miter;"/>
   </g>
   <g id="patch_50">
    <path clip-path="url(#p6eca7305f4)" d="M 722.317625 74660.829431 
L 734.740631 74660.829431 
L 734.740631 74660.829431 
L 722.317625 74660.829431 
z
" style="fill:#1f77b4;opacity:0.6;stroke:#000000;stroke-linejoin:miter;"/>
   </g>
   <g id="patch_51">
    <path clip-path="url(#p6eca7305f4)" d="M 734.740631 74660.829431 
L 747.163636 74660.829431 
L 747.163636 74660.829431 
L 734.740631 74660.829431 
z
" style="fill:#1f77b4;opacity:0.6;stroke:#000000;stroke-linejoin:miter;"/>
   </g>
   <g id="patch_52">
    <path clip-path="url(#p6eca7305f4)" d="M 138.436364 74660.829431 
L 150.859369 74660.829431 
L 150.859369 66.665455 
L 138.436364 66.665455 
z
" style="fill:#ff7f0e;opacity:0.6;stroke:#000000;stroke-linejoin:miter;"/>
   </g>
   <g id="patch_53">
    <path clip-path="url(#p6eca7305f4)" d="M 150.859369 74660.829431 
L 163.282375 74660.829431 
L 163.282375 225.179097 
L 150.859369 225.179097 
z
" style="fill:#ff7f0e;opacity:0.6;stroke:#000000;stroke-linejoin:miter;"/>
   </g>
   <g id="patch_54">
    <path clip-path="url(#p6eca7305f4)" d="M 163.282375 74660.829431 
L 175.70538 74660.829431 
L 175.70538 248.453911 
L 163.282375 248.453911 
z
" style="fill:#ff7f0e;opacity:0.6;stroke:#000000;stroke-linejoin:miter;"/>
   </g>
   <g id="patch_55">
    <path clip-path="url(#p6eca7305f4)" d="M 175.70538 74660.829431 
L 188.128386 74660.829431 
L 188.128386 262.001361 
L 175.70538 262.001361 
z
" style="fill:#ff7f0e;opacity:0.6;stroke:#000000;stroke-linejoin:miter;"/>
   </g>
   <g id="patch_56">
    <path clip-path="url(#p6eca7305f4)" d="M 188.128386 74660.829431 
L 200.551391 74660.829431 
L 200.551391 275.793723 
L 188.128386 275.793723 
z
" style="fill:#ff7f0e;opacity:0.6;stroke:#000000;stroke-linejoin:miter;"/>
   </g>
   <g id="patch_57">
    <path clip-path="url(#p6eca7305f4)" d="M 200.551391 74660.829431 
L 212.974397 74660.829431 
L 212.974397 288.876891 
L 200.551391 288.876891 
z
" style="fill:#ff7f0e;opacity:0.6;stroke:#000000;stroke-linejoin:miter;"/>
   </g>
   <g id="patch_58">
    <path clip-path="url(#p6eca7305f4)" d="M 212.974397 74660.829431 
L 225.397403 74660.829431 
L 225.397403 282.99391 
L 212.974397 282.99391 
z
" style="fill:#ff7f0e;opacity:0.6;stroke:#000000;stroke-linejoin:miter;"/>
   </g>
   <g id="patch_59">
    <path clip-path="url(#p6eca7305f4)" d="M 225.397403 74660.829431 
L 237.820408 74660.829431 
L 237.820408 292.276565 
L 225.397403 292.276565 
z
" style="fill:#ff7f0e;opacity:0.6;stroke:#000000;stroke-linejoin:miter;"/>
   </g>
   <g id="patch_60">
    <path clip-path="url(#p6eca7305f4)" d="M 237.820408 74660.829431 
L 250.243414 74660.829431 
L 250.243414 300.385743 
L 237.820408 300.385743 
z
" style="fill:#ff7f0e;opacity:0.6;stroke:#000000;stroke-linejoin:miter;"/>
   </g>
   <g id="patch_61">
    <path clip-path="url(#p6eca7305f4)" d="M 250.243414 74660.829431 
L 262.666419 74660.829431 
L 262.666419 305.359732 
L 250.243414 305.359732 
z
" style="fill:#ff7f0e;opacity:0.6;stroke:#000000;stroke-linejoin:miter;"/>
   </g>
   <g id="patch_62">
    <path clip-path="url(#p6eca7305f4)" d="M 262.666419 74660.829431 
L 275.089425 74660.829431 
L 275.089425 296.077077 
L 262.666419 296.077077 
z
" style="fill:#ff7f0e;opacity:0.6;stroke:#000000;stroke-linejoin:miter;"/>
   </g>
   <g id="patch_63">
    <path clip-path="url(#p6eca7305f4)" d="M 275.089425 74660.829431 
L 287.51243 74660.829431 
L 287.51243 363.174545 
L 275.089425 363.174545 
z
" style="fill:#ff7f0e;opacity:0.6;stroke:#000000;stroke-linejoin:miter;"/>
   </g>
   <g id="patch_64">
    <path clip-path="url(#p6eca7305f4)" d="M 287.51243 74660.829431 
L 299.935436 74660.829431 
L 299.935436 74660.829431 
L 287.51243 74660.829431 
z
" style="fill:#ff7f0e;opacity:0.6;stroke:#000000;stroke-linejoin:miter;"/>
   </g>
   <g id="patch_65">
    <path clip-path="url(#p6eca7305f4)" d="M 299.935436 74660.829431 
L 312.358442 74660.829431 
L 312.358442 327.725555 
L 299.935436 327.725555 
z
" style="fill:#ff7f0e;opacity:0.6;stroke:#000000;stroke-linejoin:miter;"/>
   </g>
   <g id="patch_66">
    <path clip-path="url(#p6eca7305f4)" d="M 312.358442 74660.829431 
L 324.781447 74660.829431 
L 324.781447 311.242713 
L 312.358442 311.242713 
z
" style="fill:#ff7f0e;opacity:0.6;stroke:#000000;stroke-linejoin:miter;"/>
   </g>
   <g id="patch_67">
    <path clip-path="url(#p6eca7305f4)" d="M 324.781447 74660.829431 
L 337.204453 74660.829431 
L 337.204453 363.174545 
L 324.781447 363.174545 
z
" style="fill:#ff7f0e;opacity:0.6;stroke:#000000;stroke-linejoin:miter;"/>
   </g>
   <g id="patch_68">
    <path clip-path="url(#p6eca7305f4)" d="M 337.204453 74660.829431 
L 349.627458 74660.829431 
L 349.627458 74660.829431 
L 337.204453 74660.829431 
z
" style="fill:#ff7f0e;opacity:0.6;stroke:#000000;stroke-linejoin:miter;"/>
   </g>
   <g id="patch_69">
    <path clip-path="url(#p6eca7305f4)" d="M 349.627458 74660.829431 
L 362.050464 74660.829431 
L 362.050464 340.808723 
L 349.627458 340.808723 
z
" style="fill:#ff7f0e;opacity:0.6;stroke:#000000;stroke-linejoin:miter;"/>
   </g>
   <g id="patch_70">
    <path clip-path="url(#p6eca7305f4)" d="M 362.050464 74660.829431 
L 374.473469 74660.829431 
L 374.473469 74660.829431 
L 362.050464 74660.829431 
z
" style="fill:#ff7f0e;opacity:0.6;stroke:#000000;stroke-linejoin:miter;"/>
   </g>
   <g id="patch_71">
    <path clip-path="url(#p6eca7305f4)" d="M 374.473469 74660.829431 
L 386.896475 74660.829431 
L 386.896475 74660.829431 
L 374.473469 74660.829431 
z
" style="fill:#ff7f0e;opacity:0.6;stroke:#000000;stroke-linejoin:miter;"/>
   </g>
   <g id="patch_72">
    <path clip-path="url(#p6eca7305f4)" d="M 386.896475 74660.829431 
L 399.319481 74660.829431 
L 399.319481 74660.829431 
L 386.896475 74660.829431 
z
" style="fill:#ff7f0e;opacity:0.6;stroke:#000000;stroke-linejoin:miter;"/>
   </g>
   <g id="patch_73">
    <path clip-path="url(#p6eca7305f4)" d="M 399.319481 74660.829431 
L 411.742486 74660.829431 
L 411.742486 74660.829431 
L 399.319481 74660.829431 
z
" style="fill:#ff7f0e;opacity:0.6;stroke:#000000;stroke-linejoin:miter;"/>
   </g>
   <g id="patch_74">
    <path clip-path="url(#p6eca7305f4)" d="M 411.742486 74660.829431 
L 424.165492 74660.829431 
L 424.165492 74660.829431 
L 411.742486 74660.829431 
z
" style="fill:#ff7f0e;opacity:0.6;stroke:#000000;stroke-linejoin:miter;"/>
   </g>
   <g id="patch_75">
    <path clip-path="url(#p6eca7305f4)" d="M 424.165492 74660.829431 
L 436.588497 74660.829431 
L 436.588497 74660.829431 
L 424.165492 74660.829431 
z
" style="fill:#ff7f0e;opacity:0.6;stroke:#000000;stroke-linejoin:miter;"/>
   </g>
   <g id="patch_76">
    <path clip-path="url(#p6eca7305f4)" d="M 436.588497 74660.829431 
L 449.011503 74660.829431 
L 449.011503 74660.829431 
L 436.588497 74660.829431 
z
" style="fill:#ff7f0e;opacity:0.6;stroke:#000000;stroke-linejoin:miter;"/>
   </g>
   <g id="patch_77">
    <path clip-path="url(#p6eca7305f4)" d="M 449.011503 74660.829431 
L 461.434508 74660.829431 
L 461.434508 74660.829431 
L 449.011503 74660.829431 
z
" style="fill:#ff7f0e;opacity:0.6;stroke:#000000;stroke-linejoin:miter;"/>
   </g>
   <g id="patch_78">
    <path clip-path="url(#p6eca7305f4)" d="M 461.434508 74660.829431 
L 473.857514 74660.829431 
L 473.857514 74660.829431 
L 461.434508 74660.829431 
z
" style="fill:#ff7f0e;opacity:0.6;stroke:#000000;stroke-linejoin:miter;"/>
   </g>
   <g id="patch_79">
    <path clip-path="url(#p6eca7305f4)" d="M 473.857514 74660.829431 
L 486.280519 74660.829431 
L 486.280519 74660.829431 
L 473.857514 74660.829431 
z
" style="fill:#ff7f0e;opacity:0.6;stroke:#000000;stroke-linejoin:miter;"/>
   </g>
   <g id="patch_80">
    <path clip-path="url(#p6eca7305f4)" d="M 486.280519 74660.829431 
L 498.703525 74660.829431 
L 498.703525 74660.829431 
L 486.280519 74660.829431 
z
" style="fill:#ff7f0e;opacity:0.6;stroke:#000000;stroke-linejoin:miter;"/>
   </g>
   <g id="patch_81">
    <path clip-path="url(#p6eca7305f4)" d="M 498.703525 74660.829431 
L 511.126531 74660.829431 
L 511.126531 74660.829431 
L 498.703525 74660.829431 
z
" style="fill:#ff7f0e;opacity:0.6;stroke:#000000;stroke-linejoin:miter;"/>
   </g>
   <g id="patch_82">
    <path clip-path="url(#p6eca7305f4)" d="M 511.126531 74660.829431 
L 523.549536 74660.829431 
L 523.549536 74660.829431 
L 511.126531 74660.829431 
z
" style="fill:#ff7f0e;opacity:0.6;stroke:#000000;stroke-linejoin:miter;"/>
   </g>
   <g id="patch_83">
    <path clip-path="url(#p6eca7305f4)" d="M 523.549536 74660.829431 
L 535.972542 74660.829431 
L 535.972542 74660.829431 
L 523.549536 74660.829431 
z
" style="fill:#ff7f0e;opacity:0.6;stroke:#000000;stroke-linejoin:miter;"/>
   </g>
   <g id="patch_84">
    <path clip-path="url(#p6eca7305f4)" d="M 535.972542 74660.829431 
L 548.395547 74660.829431 
L 548.395547 74660.829431 
L 535.972542 74660.829431 
z
" style="fill:#ff7f0e;opacity:0.6;stroke:#000000;stroke-linejoin:miter;"/>
   </g>
   <g id="patch_85">
    <path clip-path="url(#p6eca7305f4)" d="M 548.395547 74660.829431 
L 560.818553 74660.829431 
L 560.818553 74660.829431 
L 548.395547 74660.829431 
z
" style="fill:#ff7f0e;opacity:0.6;stroke:#000000;stroke-linejoin:miter;"/>
   </g>
   <g id="patch_86">
    <path clip-path="url(#p6eca7305f4)" d="M 560.818553 74660.829431 
L 573.241558 74660.829431 
L 573.241558 74660.829431 
L 560.818553 74660.829431 
z
" style="fill:#ff7f0e;opacity:0.6;stroke:#000000;stroke-linejoin:miter;"/>
   </g>
   <g id="patch_87">
    <path clip-path="url(#p6eca7305f4)" d="M 573.241558 74660.829431 
L 585.664564 74660.829431 
L 585.664564 74660.829431 
L 573.241558 74660.829431 
z
" style="fill:#ff7f0e;opacity:0.6;stroke:#000000;stroke-linejoin:miter;"/>
   </g>
   <g id="patch_88">
    <path clip-path="url(#p6eca7305f4)" d="M 585.664564 74660.829431 
L 598.08757 74660.829431 
L 598.08757 74660.829431 
L 585.664564 74660.829431 
z
" style="fill:#ff7f0e;opacity:0.6;stroke:#000000;stroke-linejoin:miter;"/>
   </g>
   <g id="patch_89">
    <path clip-path="url(#p6eca7305f4)" d="M 598.08757 74660.829431 
L 610.510575 74660.829431 
L 610.510575 74660.829431 
L 598.08757 74660.829431 
z
" style="fill:#ff7f0e;opacity:0.6;stroke:#000000;stroke-linejoin:miter;"/>
   </g>
   <g id="patch_90">
    <path clip-path="url(#p6eca7305f4)" d="M 610.510575 74660.829431 
L 622.933581 74660.829431 
L 622.933581 74660.829431 
L 610.510575 74660.829431 
z
" style="fill:#ff7f0e;opacity:0.6;stroke:#000000;stroke-linejoin:miter;"/>
   </g>
   <g id="patch_91">
    <path clip-path="url(#p6eca7305f4)" d="M 622.933581 74660.829431 
L 635.356586 74660.829431 
L 635.356586 74660.829431 
L 622.933581 74660.829431 
z
" style="fill:#ff7f0e;opacity:0.6;stroke:#000000;stroke-linejoin:miter;"/>
   </g>
   <g id="patch_92">
    <path clip-path="url(#p6eca7305f4)" d="M 635.356586 74660.829431 
L 647.779592 74660.829431 
L 647.779592 74660.829431 
L 635.356586 74660.829431 
z
" style="fill:#ff7f0e;opacity:0.6;stroke:#000000;stroke-linejoin:miter;"/>
   </g>
   <g id="patch_93">
    <path clip-path="url(#p6eca7305f4)" d="M 647.779592 74660.829431 
L 660.202597 74660.829431 
L 660.202597 74660.829431 
L 647.779592 74660.829431 
z
" style="fill:#ff7f0e;opacity:0.6;stroke:#000000;stroke-linejoin:miter;"/>
   </g>
   <g id="patch_94">
    <path clip-path="url(#p6eca7305f4)" d="M 660.202597 74660.829431 
L 672.625603 74660.829431 
L 672.625603 74660.829431 
L 660.202597 74660.829431 
z
" style="fill:#ff7f0e;opacity:0.6;stroke:#000000;stroke-linejoin:miter;"/>
   </g>
   <g id="patch_95">
    <path clip-path="url(#p6eca7305f4)" d="M 672.625603 74660.829431 
L 685.048609 74660.829431 
L 685.048609 74660.829431 
L 672.625603 74660.829431 
z
" style="fill:#ff7f0e;opacity:0.6;stroke:#000000;stroke-linejoin:miter;"/>
   </g>
   <g id="patch_96">
    <path clip-path="url(#p6eca7305f4)" d="M 685.048609 74660.829431 
L 697.471614 74660.829431 
L 697.471614 74660.829431 
L 685.048609 74660.829431 
z
" style="fill:#ff7f0e;opacity:0.6;stroke:#000000;stroke-linejoin:miter;"/>
   </g>
   <g id="patch_97">
    <path clip-path="url(#p6eca7305f4)" d="M 697.471614 74660.829431 
L 709.89462 74660.829431 
L 709.89462 74660.829431 
L 697.471614 74660.829431 
z
" style="fill:#ff7f0e;opacity:0.6;stroke:#000000;stroke-linejoin:miter;"/>
   </g>
   <g id="patch_98">
    <path clip-path="url(#p6eca7305f4)" d="M 709.89462 74660.829431 
L 722.317625 74660.829431 
L 722.317625 74660.829431 
L 709.89462 74660.829431 
z
" style="fill:#ff7f0e;opacity:0.6;stroke:#000000;stroke-linejoin:miter;"/>
   </g>
   <g id="patch_99">
    <path clip-path="url(#p6eca7305f4)" d="M 722.317625 74660.829431 
L 734.740631 74660.829431 
L 734.740631 74660.829431 
L 722.317625 74660.829431 
z
" style="fill:#ff7f0e;opacity:0.6;stroke:#000000;stroke-linejoin:miter;"/>
   </g>
   <g id="patch_100">
    <path clip-path="url(#p6eca7305f4)" d="M 734.740631 74660.829431 
L 747.163636 74660.829431 
L 747.163636 74660.829431 
L 734.740631 74660.829431 
z
" style="fill:#ff7f0e;opacity:0.6;stroke:#000000;stroke-linejoin:miter;"/>
   </g>
   <g id="matplotlib.axis_1">
    <g id="xtick_1">
     <g id="line2d_1">
      <defs>
       <path d="M 0 0 
L 0 3.5 
" id="m8d555776d2" style="stroke:#000000;"/>
      </defs>
      <g>
       <use style="stroke:#000000;" x="138.436364" xlink:href="#m8d555776d2" y="378"/>
      </g>
     </g>
     <g id="text_1">
      <!-- 0.0 -->
      <defs>
       <path d="M 4.15625 35.296875 
Q 4.15625 48 6.765625 55.734375 
Q 9.375 63.484375 14.515625 67.671875 
Q 19.671875 71.875 27.484375 71.875 
Q 33.25 71.875 37.59375 69.546875 
Q 41.9375 67.234375 44.765625 62.859375 
Q 47.609375 58.5 49.21875 52.21875 
Q 50.828125 45.953125 50.828125 35.296875 
Q 50.828125 22.703125 48.234375 14.96875 
Q 45.65625 7.234375 40.5 3 
Q 35.359375 -1.21875 27.484375 -1.21875 
Q 17.140625 -1.21875 11.234375 6.203125 
Q 4.15625 15.140625 4.15625 35.296875 
z
M 13.1875 35.296875 
Q 13.1875 17.671875 17.3125 11.828125 
Q 21.4375 6 27.484375 6 
Q 33.546875 6 37.671875 11.859375 
Q 41.796875 17.71875 41.796875 35.296875 
Q 41.796875 52.984375 37.671875 58.78125 
Q 33.546875 64.59375 27.390625 64.59375 
Q 21.34375 64.59375 17.71875 59.46875 
Q 13.1875 52.9375 13.1875 35.296875 
z
" id="ArialMT-48"/>
       <path d="M 9.078125 0 
L 9.078125 10.015625 
L 19.09375 10.015625 
L 19.09375 0 
z
" id="ArialMT-46"/>
      </defs>
      <g transform="translate(127.316364 396.4525)scale(0.16 -0.16)">
       <use xlink:href="#ArialMT-48"/>
       <use x="55.615234" xlink:href="#ArialMT-46"/>
       <use x="83.398438" xlink:href="#ArialMT-48"/>
      </g>
     </g>
    </g>
    <g id="xtick_2">
     <g id="line2d_2">
      <g>
       <use style="stroke:#000000;" x="262.666419" xlink:href="#m8d555776d2" y="378"/>
      </g>
     </g>
     <g id="text_2">
      <!-- 0.5 -->
      <defs>
       <path d="M 4.15625 18.75 
L 13.375 19.53125 
Q 14.40625 12.796875 18.140625 9.390625 
Q 21.875 6 27.15625 6 
Q 33.5 6 37.890625 10.78125 
Q 42.28125 15.578125 42.28125 23.484375 
Q 42.28125 31 38.0625 35.34375 
Q 33.84375 39.703125 27 39.703125 
Q 22.75 39.703125 19.328125 37.765625 
Q 15.921875 35.84375 13.96875 32.765625 
L 5.71875 33.84375 
L 12.640625 70.609375 
L 48.25 70.609375 
L 48.25 62.203125 
L 19.671875 62.203125 
L 15.828125 42.96875 
Q 22.265625 47.46875 29.34375 47.46875 
Q 38.71875 47.46875 45.15625 40.96875 
Q 51.609375 34.46875 51.609375 24.265625 
Q 51.609375 14.546875 45.953125 7.46875 
Q 39.0625 -1.21875 27.15625 -1.21875 
Q 17.390625 -1.21875 11.203125 4.25 
Q 5.03125 9.71875 4.15625 18.75 
z
" id="ArialMT-53"/>
      </defs>
      <g transform="translate(251.546419 396.4525)scale(0.16 -0.16)">
       <use xlink:href="#ArialMT-48"/>
       <use x="55.615234" xlink:href="#ArialMT-46"/>
       <use x="83.398438" xlink:href="#ArialMT-53"/>
      </g>
     </g>
    </g>
    <g id="xtick_3">
     <g id="line2d_3">
      <g>
       <use style="stroke:#000000;" x="386.896475" xlink:href="#m8d555776d2" y="378"/>
      </g>
     </g>
     <g id="text_3">
      <!-- 1.0 -->
      <defs>
       <path d="M 37.25 0 
L 28.46875 0 
L 28.46875 56 
Q 25.296875 52.984375 20.140625 49.953125 
Q 14.984375 46.921875 10.890625 45.40625 
L 10.890625 53.90625 
Q 18.265625 57.375 23.78125 62.296875 
Q 29.296875 67.234375 31.59375 71.875 
L 37.25 71.875 
z
" id="ArialMT-49"/>
      </defs>
      <g transform="translate(375.776475 396.4525)scale(0.16 -0.16)">
       <use xlink:href="#ArialMT-49"/>
       <use x="55.615234" xlink:href="#ArialMT-46"/>
       <use x="83.398438" xlink:href="#ArialMT-48"/>
      </g>
     </g>
    </g>
    <g id="xtick_4">
     <g id="line2d_4">
      <g>
       <use style="stroke:#000000;" x="511.126531" xlink:href="#m8d555776d2" y="378"/>
      </g>
     </g>
     <g id="text_4">
      <!-- 1.5 -->
      <g transform="translate(500.006531 396.4525)scale(0.16 -0.16)">
       <use xlink:href="#ArialMT-49"/>
       <use x="55.615234" xlink:href="#ArialMT-46"/>
       <use x="83.398438" xlink:href="#ArialMT-53"/>
      </g>
     </g>
    </g>
    <g id="xtick_5">
     <g id="line2d_5">
      <g>
       <use style="stroke:#000000;" x="635.356586" xlink:href="#m8d555776d2" y="378"/>
      </g>
     </g>
     <g id="text_5">
      <!-- 2.0 -->
      <defs>
       <path d="M 50.34375 8.453125 
L 50.34375 0 
L 3.03125 0 
Q 2.9375 3.171875 4.046875 6.109375 
Q 5.859375 10.9375 9.828125 15.625 
Q 13.8125 20.3125 21.34375 26.46875 
Q 33.015625 36.03125 37.109375 41.625 
Q 41.21875 47.21875 41.21875 52.203125 
Q 41.21875 57.421875 37.46875 61 
Q 33.734375 64.59375 27.734375 64.59375 
Q 21.390625 64.59375 17.578125 60.78125 
Q 13.765625 56.984375 13.71875 50.25 
L 4.6875 51.171875 
Q 5.609375 61.28125 11.65625 66.578125 
Q 17.71875 71.875 27.9375 71.875 
Q 38.234375 71.875 44.234375 66.15625 
Q 50.25 60.453125 50.25 52 
Q 50.25 47.703125 48.484375 43.546875 
Q 46.734375 39.40625 42.65625 34.8125 
Q 38.578125 30.21875 29.109375 22.21875 
Q 21.1875 15.578125 18.9375 13.203125 
Q 16.703125 10.84375 15.234375 8.453125 
z
" id="ArialMT-50"/>
      </defs>
      <g transform="translate(624.236586 396.4525)scale(0.16 -0.16)">
       <use xlink:href="#ArialMT-50"/>
       <use x="55.615234" xlink:href="#ArialMT-46"/>
       <use x="83.398438" xlink:href="#ArialMT-48"/>
      </g>
     </g>
    </g>
    <g id="xtick_6">
     <g id="line2d_6">
      <g>
       <use style="stroke:#000000;" x="759.586642" xlink:href="#m8d555776d2" y="378"/>
      </g>
     </g>
     <g id="text_6">
      <!-- 2.5 -->
      <g transform="translate(748.466642 396.4525)scale(0.16 -0.16)">
       <use xlink:href="#ArialMT-50"/>
       <use x="55.615234" xlink:href="#ArialMT-46"/>
       <use x="83.398438" xlink:href="#ArialMT-53"/>
      </g>
     </g>
    </g>
   </g>
   <g id="matplotlib.axis_2">
    <g id="ytick_1">
     <g id="line2d_7">
      <defs>
       <path d="M 0 0 
L -3.5 0 
" id="m13f546062f" style="stroke:#000000;"/>
      </defs>
      <g>
       <use style="stroke:#000000;" x="108" xlink:href="#m13f546062f" y="363.174545"/>
      </g>
     </g>
     <g id="text_7">
      <!-- $\mathdefault{10^{0}}$ -->
      <g transform="translate(75.88 371.424545)scale(0.16 -0.16)">
       <use transform="translate(0 0.99375)" xlink:href="#ArialMT-49"/>
       <use transform="translate(55.615234 0.99375)" xlink:href="#ArialMT-48"/>
       <use transform="translate(112.972813 70.6875)scale(0.7)" xlink:href="#ArialMT-48"/>
      </g>
     </g>
    </g>
    <g id="ytick_2">
     <g id="line2d_8">
      <g>
       <use style="stroke:#000000;" x="108" xlink:href="#m13f546062f" y="288.876891"/>
      </g>
     </g>
     <g id="text_8">
      <!-- $\mathdefault{10^{1}}$ -->
      <g transform="translate(75.88 297.126891)scale(0.16 -0.16)">
       <use transform="translate(0 0.99375)" xlink:href="#ArialMT-49"/>
       <use transform="translate(55.615234 0.99375)" xlink:href="#ArialMT-48"/>
       <use transform="translate(112.972813 70.6875)scale(0.7)" xlink:href="#ArialMT-49"/>
      </g>
     </g>
    </g>
    <g id="ytick_3">
     <g id="line2d_9">
      <g>
       <use style="stroke:#000000;" x="108" xlink:href="#m13f546062f" y="214.579236"/>
      </g>
     </g>
     <g id="text_9">
      <!-- $\mathdefault{10^{2}}$ -->
      <g transform="translate(75.88 222.829236)scale(0.16 -0.16)">
       <use transform="translate(0 0.99375)" xlink:href="#ArialMT-49"/>
       <use transform="translate(55.615234 0.99375)" xlink:href="#ArialMT-48"/>
       <use transform="translate(112.972813 70.6875)scale(0.7)" xlink:href="#ArialMT-50"/>
      </g>
     </g>
    </g>
    <g id="ytick_4">
     <g id="line2d_10">
      <g>
       <use style="stroke:#000000;" x="108" xlink:href="#m13f546062f" y="140.281581"/>
      </g>
     </g>
     <g id="text_10">
      <!-- $\mathdefault{10^{3}}$ -->
      <defs>
       <path d="M 4.203125 18.890625 
L 12.984375 20.0625 
Q 14.5 12.59375 18.140625 9.296875 
Q 21.78125 6 27 6 
Q 33.203125 6 37.46875 10.296875 
Q 41.75 14.59375 41.75 20.953125 
Q 41.75 27 37.796875 30.921875 
Q 33.84375 34.859375 27.734375 34.859375 
Q 25.25 34.859375 21.53125 33.890625 
L 22.515625 41.609375 
Q 23.390625 41.5 23.921875 41.5 
Q 29.546875 41.5 34.03125 44.421875 
Q 38.53125 47.359375 38.53125 53.46875 
Q 38.53125 58.296875 35.25 61.46875 
Q 31.984375 64.65625 26.8125 64.65625 
Q 21.6875 64.65625 18.265625 61.421875 
Q 14.84375 58.203125 13.875 51.765625 
L 5.078125 53.328125 
Q 6.6875 62.15625 12.390625 67.015625 
Q 18.109375 71.875 26.609375 71.875 
Q 32.46875 71.875 37.390625 69.359375 
Q 42.328125 66.84375 44.9375 62.5 
Q 47.5625 58.15625 47.5625 53.265625 
Q 47.5625 48.640625 45.0625 44.828125 
Q 42.578125 41.015625 37.703125 38.765625 
Q 44.046875 37.3125 47.5625 32.6875 
Q 51.078125 28.078125 51.078125 21.140625 
Q 51.078125 11.765625 44.234375 5.25 
Q 37.40625 -1.265625 26.953125 -1.265625 
Q 17.53125 -1.265625 11.296875 4.34375 
Q 5.078125 9.96875 4.203125 18.890625 
z
" id="ArialMT-51"/>
      </defs>
      <g transform="translate(75.88 148.531581)scale(0.16 -0.16)">
       <use transform="translate(0 0.99375)" xlink:href="#ArialMT-49"/>
       <use transform="translate(55.615234 0.99375)" xlink:href="#ArialMT-48"/>
       <use transform="translate(112.972813 70.6875)scale(0.7)" xlink:href="#ArialMT-51"/>
      </g>
     </g>
    </g>
    <g id="ytick_5">
     <g id="line2d_11">
      <g>
       <use style="stroke:#000000;" x="108" xlink:href="#m13f546062f" y="65.983926"/>
      </g>
     </g>
     <g id="text_11">
      <!-- $\mathdefault{10^{4}}$ -->
      <defs>
       <path d="M 32.328125 0 
L 32.328125 17.140625 
L 1.265625 17.140625 
L 1.265625 25.203125 
L 33.9375 71.578125 
L 41.109375 71.578125 
L 41.109375 25.203125 
L 50.78125 25.203125 
L 50.78125 17.140625 
L 41.109375 17.140625 
L 41.109375 0 
z
M 32.328125 25.203125 
L 32.328125 57.46875 
L 9.90625 25.203125 
z
" id="ArialMT-52"/>
      </defs>
      <g transform="translate(75.88 74.153926)scale(0.16 -0.16)">
       <use transform="translate(0 0.201563)" xlink:href="#ArialMT-49"/>
       <use transform="translate(55.615234 0.201563)" xlink:href="#ArialMT-48"/>
       <use transform="translate(112.972813 69.895313)scale(0.7)" xlink:href="#ArialMT-52"/>
      </g>
     </g>
    </g>
    <g id="ytick_6">
     <g id="line2d_12">
      <defs>
       <path d="M 0 0 
L -2 0 
" id="m9834d634e6" style="stroke:#000000;stroke-width:0.6;"/>
      </defs>
      <g>
       <use style="stroke:#000000;stroke-width:0.6;" x="108" xlink:href="#m9834d634e6" y="374.683398"/>
      </g>
     </g>
    </g>
    <g id="ytick_7">
     <g id="line2d_13">
      <g>
       <use style="stroke:#000000;stroke-width:0.6;" x="108" xlink:href="#m9834d634e6" y="370.374732"/>
      </g>
     </g>
    </g>
    <g id="ytick_8">
     <g id="line2d_14">
      <g>
       <use style="stroke:#000000;stroke-width:0.6;" x="108" xlink:href="#m9834d634e6" y="366.57422"/>
      </g>
     </g>
    </g>
    <g id="ytick_9">
     <g id="line2d_15">
      <g>
       <use style="stroke:#000000;stroke-width:0.6;" x="108" xlink:href="#m9834d634e6" y="340.808723"/>
      </g>
     </g>
    </g>
    <g id="ytick_10">
     <g id="line2d_16">
      <g>
       <use style="stroke:#000000;stroke-width:0.6;" x="108" xlink:href="#m9834d634e6" y="327.725555"/>
      </g>
     </g>
    </g>
    <g id="ytick_11">
     <g id="line2d_17">
      <g>
       <use style="stroke:#000000;stroke-width:0.6;" x="108" xlink:href="#m9834d634e6" y="318.4429"/>
      </g>
     </g>
    </g>
    <g id="ytick_12">
     <g id="line2d_18">
      <g>
       <use style="stroke:#000000;stroke-width:0.6;" x="108" xlink:href="#m9834d634e6" y="311.242713"/>
      </g>
     </g>
    </g>
    <g id="ytick_13">
     <g id="line2d_19">
      <g>
       <use style="stroke:#000000;stroke-width:0.6;" x="108" xlink:href="#m9834d634e6" y="305.359732"/>
      </g>
     </g>
    </g>
    <g id="ytick_14">
     <g id="line2d_20">
      <g>
       <use style="stroke:#000000;stroke-width:0.6;" x="108" xlink:href="#m9834d634e6" y="300.385743"/>
      </g>
     </g>
    </g>
    <g id="ytick_15">
     <g id="line2d_21">
      <g>
       <use style="stroke:#000000;stroke-width:0.6;" x="108" xlink:href="#m9834d634e6" y="296.077077"/>
      </g>
     </g>
    </g>
    <g id="ytick_16">
     <g id="line2d_22">
      <g>
       <use style="stroke:#000000;stroke-width:0.6;" x="108" xlink:href="#m9834d634e6" y="292.276565"/>
      </g>
     </g>
    </g>
    <g id="ytick_17">
     <g id="line2d_23">
      <g>
       <use style="stroke:#000000;stroke-width:0.6;" x="108" xlink:href="#m9834d634e6" y="266.511068"/>
      </g>
     </g>
    </g>
    <g id="ytick_18">
     <g id="line2d_24">
      <g>
       <use style="stroke:#000000;stroke-width:0.6;" x="108" xlink:href="#m9834d634e6" y="253.4279"/>
      </g>
     </g>
    </g>
    <g id="ytick_19">
     <g id="line2d_25">
      <g>
       <use style="stroke:#000000;stroke-width:0.6;" x="108" xlink:href="#m9834d634e6" y="244.145245"/>
      </g>
     </g>
    </g>
    <g id="ytick_20">
     <g id="line2d_26">
      <g>
       <use style="stroke:#000000;stroke-width:0.6;" x="108" xlink:href="#m9834d634e6" y="236.945058"/>
      </g>
     </g>
    </g>
    <g id="ytick_21">
     <g id="line2d_27">
      <g>
       <use style="stroke:#000000;stroke-width:0.6;" x="108" xlink:href="#m9834d634e6" y="231.062078"/>
      </g>
     </g>
    </g>
    <g id="ytick_22">
     <g id="line2d_28">
      <g>
       <use style="stroke:#000000;stroke-width:0.6;" x="108" xlink:href="#m9834d634e6" y="226.088088"/>
      </g>
     </g>
    </g>
    <g id="ytick_23">
     <g id="line2d_29">
      <g>
       <use style="stroke:#000000;stroke-width:0.6;" x="108" xlink:href="#m9834d634e6" y="221.779422"/>
      </g>
     </g>
    </g>
    <g id="ytick_24">
     <g id="line2d_30">
      <g>
       <use style="stroke:#000000;stroke-width:0.6;" x="108" xlink:href="#m9834d634e6" y="217.97891"/>
      </g>
     </g>
    </g>
    <g id="ytick_25">
     <g id="line2d_31">
      <g>
       <use style="stroke:#000000;stroke-width:0.6;" x="108" xlink:href="#m9834d634e6" y="192.213413"/>
      </g>
     </g>
    </g>
    <g id="ytick_26">
     <g id="line2d_32">
      <g>
       <use style="stroke:#000000;stroke-width:0.6;" x="108" xlink:href="#m9834d634e6" y="179.130245"/>
      </g>
     </g>
    </g>
    <g id="ytick_27">
     <g id="line2d_33">
      <g>
       <use style="stroke:#000000;stroke-width:0.6;" x="108" xlink:href="#m9834d634e6" y="169.84759"/>
      </g>
     </g>
    </g>
    <g id="ytick_28">
     <g id="line2d_34">
      <g>
       <use style="stroke:#000000;stroke-width:0.6;" x="108" xlink:href="#m9834d634e6" y="162.647404"/>
      </g>
     </g>
    </g>
    <g id="ytick_29">
     <g id="line2d_35">
      <g>
       <use style="stroke:#000000;stroke-width:0.6;" x="108" xlink:href="#m9834d634e6" y="156.764423"/>
      </g>
     </g>
    </g>
    <g id="ytick_30">
     <g id="line2d_36">
      <g>
       <use style="stroke:#000000;stroke-width:0.6;" x="108" xlink:href="#m9834d634e6" y="151.790433"/>
      </g>
     </g>
    </g>
    <g id="ytick_31">
     <g id="line2d_37">
      <g>
       <use style="stroke:#000000;stroke-width:0.6;" x="108" xlink:href="#m9834d634e6" y="147.481768"/>
      </g>
     </g>
    </g>
    <g id="ytick_32">
     <g id="line2d_38">
      <g>
       <use style="stroke:#000000;stroke-width:0.6;" x="108" xlink:href="#m9834d634e6" y="143.681255"/>
      </g>
     </g>
    </g>
    <g id="ytick_33">
     <g id="line2d_39">
      <g>
       <use style="stroke:#000000;stroke-width:0.6;" x="108" xlink:href="#m9834d634e6" y="117.915758"/>
      </g>
     </g>
    </g>
    <g id="ytick_34">
     <g id="line2d_40">
      <g>
       <use style="stroke:#000000;stroke-width:0.6;" x="108" xlink:href="#m9834d634e6" y="104.83259"/>
      </g>
     </g>
    </g>
    <g id="ytick_35">
     <g id="line2d_41">
      <g>
       <use style="stroke:#000000;stroke-width:0.6;" x="108" xlink:href="#m9834d634e6" y="95.549935"/>
      </g>
     </g>
    </g>
    <g id="ytick_36">
     <g id="line2d_42">
      <g>
       <use style="stroke:#000000;stroke-width:0.6;" x="108" xlink:href="#m9834d634e6" y="88.349749"/>
      </g>
     </g>
    </g>
    <g id="ytick_37">
     <g id="line2d_43">
      <g>
       <use style="stroke:#000000;stroke-width:0.6;" x="108" xlink:href="#m9834d634e6" y="82.466768"/>
      </g>
     </g>
    </g>
    <g id="ytick_38">
     <g id="line2d_44">
      <g>
       <use style="stroke:#000000;stroke-width:0.6;" x="108" xlink:href="#m9834d634e6" y="77.492778"/>
      </g>
     </g>
    </g>
    <g id="ytick_39">
     <g id="line2d_45">
      <g>
       <use style="stroke:#000000;stroke-width:0.6;" x="108" xlink:href="#m9834d634e6" y="73.184113"/>
      </g>
     </g>
    </g>
    <g id="ytick_40">
     <g id="line2d_46">
      <g>
       <use style="stroke:#000000;stroke-width:0.6;" x="108" xlink:href="#m9834d634e6" y="69.3836"/>
      </g>
     </g>
    </g>
   </g>
   <g id="patch_101">
    <path d="M 108 378 
L 108 51.84 
" style="fill:none;stroke:#000000;stroke-linecap:square;stroke-linejoin:miter;"/>
   </g>
   <g id="patch_102">
    <path d="M 777.6 378 
L 777.6 51.84 
" style="fill:none;stroke:#000000;stroke-linecap:square;stroke-linejoin:miter;"/>
   </g>
   <g id="patch_103">
    <path d="M 108 378 
L 777.6 378 
" style="fill:none;stroke:#000000;stroke-linecap:square;stroke-linejoin:miter;"/>
   </g>
   <g id="patch_104">
    <path d="M 108 51.84 
L 777.6 51.84 
" style="fill:none;stroke:#000000;stroke-linecap:square;stroke-linejoin:miter;"/>
   </g>
   <g id="legend_1">
    <g id="patch_105">
     <path d="M 651.5275 109.905 
L 769.6 109.905 
L 769.6 59.84 
L 651.5275 59.84 
z
" style="fill:#ffffff;stroke:#000000;stroke-linejoin:miter;"/>
    </g>
    <g id="patch_106">
     <path d="M 657.9275 77.6925 
L 689.9275 77.6925 
L 689.9275 66.4925 
L 657.9275 66.4925 
z
" style="fill:#1f77b4;opacity:0.6;stroke:#000000;stroke-linejoin:miter;"/>
    </g>
    <g id="text_12">
     <!-- SMBO -->
     <defs>
      <path d="M 4.5 23 
L 13.421875 23.78125 
Q 14.0625 18.40625 16.375 14.96875 
Q 18.703125 11.53125 23.578125 9.40625 
Q 28.46875 7.28125 34.578125 7.28125 
Q 39.984375 7.28125 44.140625 8.890625 
Q 48.296875 10.5 50.3125 13.296875 
Q 52.34375 16.109375 52.34375 19.4375 
Q 52.34375 22.796875 50.390625 25.3125 
Q 48.4375 27.828125 43.953125 29.546875 
Q 41.0625 30.671875 31.203125 33.03125 
Q 21.34375 35.40625 17.390625 37.5 
Q 12.25 40.1875 9.734375 44.15625 
Q 7.234375 48.140625 7.234375 53.078125 
Q 7.234375 58.5 10.296875 63.203125 
Q 13.375 67.921875 19.28125 70.359375 
Q 25.203125 72.796875 32.421875 72.796875 
Q 40.375 72.796875 46.453125 70.234375 
Q 52.546875 67.671875 55.8125 62.6875 
Q 59.078125 57.71875 59.328125 51.421875 
L 50.25 50.734375 
Q 49.515625 57.515625 45.28125 60.984375 
Q 41.0625 64.453125 32.8125 64.453125 
Q 24.21875 64.453125 20.28125 61.296875 
Q 16.359375 58.15625 16.359375 53.71875 
Q 16.359375 49.859375 19.140625 47.359375 
Q 21.875 44.875 33.421875 42.265625 
Q 44.96875 39.65625 49.265625 37.703125 
Q 55.515625 34.8125 58.484375 30.390625 
Q 61.46875 25.984375 61.46875 20.21875 
Q 61.46875 14.5 58.203125 9.4375 
Q 54.9375 4.390625 48.796875 1.578125 
Q 42.671875 -1.21875 35.015625 -1.21875 
Q 25.296875 -1.21875 18.71875 1.609375 
Q 12.15625 4.4375 8.421875 10.125 
Q 4.6875 15.828125 4.5 23 
z
" id="ArialMT-83"/>
      <path d="M 7.421875 0 
L 7.421875 71.578125 
L 21.6875 71.578125 
L 38.625 20.90625 
Q 40.96875 13.8125 42.046875 10.296875 
Q 43.265625 14.203125 45.84375 21.78125 
L 62.984375 71.578125 
L 75.734375 71.578125 
L 75.734375 0 
L 66.609375 0 
L 66.609375 59.90625 
L 45.796875 0 
L 37.25 0 
L 16.546875 60.9375 
L 16.546875 0 
z
" id="ArialMT-77"/>
      <path d="M 7.328125 0 
L 7.328125 71.578125 
L 34.1875 71.578125 
Q 42.390625 71.578125 47.34375 69.40625 
Q 52.296875 67.234375 55.09375 62.71875 
Q 57.90625 58.203125 57.90625 53.265625 
Q 57.90625 48.6875 55.421875 44.625 
Q 52.9375 40.578125 47.90625 38.09375 
Q 54.390625 36.1875 57.875 31.59375 
Q 61.375 27 61.375 20.75 
Q 61.375 15.71875 59.25 11.390625 
Q 57.125 7.078125 54 4.734375 
Q 50.875 2.390625 46.15625 1.1875 
Q 41.453125 0 34.625 0 
z
M 16.796875 41.5 
L 32.28125 41.5 
Q 38.578125 41.5 41.3125 42.328125 
Q 44.921875 43.40625 46.75 45.890625 
Q 48.578125 48.390625 48.578125 52.15625 
Q 48.578125 55.71875 46.875 58.421875 
Q 45.171875 61.140625 41.984375 62.140625 
Q 38.8125 63.140625 31.109375 63.140625 
L 16.796875 63.140625 
z
M 16.796875 8.453125 
L 34.625 8.453125 
Q 39.203125 8.453125 41.0625 8.796875 
Q 44.34375 9.375 46.53125 10.734375 
Q 48.734375 12.109375 50.140625 14.71875 
Q 51.5625 17.328125 51.5625 20.75 
Q 51.5625 24.75 49.515625 27.703125 
Q 47.46875 30.671875 43.828125 31.859375 
Q 40.1875 33.0625 33.34375 33.0625 
L 16.796875 33.0625 
z
" id="ArialMT-66"/>
      <path d="M 4.828125 34.859375 
Q 4.828125 52.6875 14.390625 62.765625 
Q 23.96875 72.859375 39.109375 72.859375 
Q 49.03125 72.859375 56.984375 68.109375 
Q 64.9375 63.375 69.109375 54.90625 
Q 73.296875 46.4375 73.296875 35.6875 
Q 73.296875 24.8125 68.890625 16.21875 
Q 64.5 7.625 56.4375 3.203125 
Q 48.390625 -1.21875 39.0625 -1.21875 
Q 28.953125 -1.21875 20.984375 3.65625 
Q 13.03125 8.546875 8.921875 16.984375 
Q 4.828125 25.4375 4.828125 34.859375 
z
M 14.59375 34.71875 
Q 14.59375 21.78125 21.546875 14.328125 
Q 28.515625 6.890625 39.015625 6.890625 
Q 49.703125 6.890625 56.609375 14.40625 
Q 63.53125 21.921875 63.53125 35.75 
Q 63.53125 44.484375 60.578125 51 
Q 57.625 57.515625 51.921875 61.109375 
Q 46.234375 64.703125 39.15625 64.703125 
Q 29.109375 64.703125 21.84375 57.78125 
Q 14.59375 50.875 14.59375 34.71875 
z
" id="ArialMT-79"/>
     </defs>
     <g transform="translate(702.7275 77.6925)scale(0.16 -0.16)">
      <use xlink:href="#ArialMT-83"/>
      <use x="66.699219" xlink:href="#ArialMT-77"/>
      <use x="150" xlink:href="#ArialMT-66"/>
      <use x="216.699219" xlink:href="#ArialMT-79"/>
     </g>
    </g>
    <g id="patch_107">
     <path d="M 657.9275 100.325 
L 689.9275 100.325 
L 689.9275 89.125 
L 657.9275 89.125 
z
" style="fill:#ff7f0e;opacity:0.6;stroke:#000000;stroke-linejoin:miter;"/>
    </g>
    <g id="text_13">
     <!-- Random -->
     <defs>
      <path d="M 7.859375 0 
L 7.859375 71.578125 
L 39.59375 71.578125 
Q 49.171875 71.578125 54.140625 69.640625 
Q 59.125 67.71875 62.109375 62.828125 
Q 65.09375 57.953125 65.09375 52.046875 
Q 65.09375 44.4375 60.15625 39.203125 
Q 55.21875 33.984375 44.921875 32.5625 
Q 48.6875 30.765625 50.640625 29 
Q 54.78125 25.203125 58.5 19.484375 
L 70.953125 0 
L 59.03125 0 
L 49.5625 14.890625 
Q 45.40625 21.34375 42.71875 24.75 
Q 40.046875 28.171875 37.921875 29.53125 
Q 35.796875 30.90625 33.59375 31.453125 
Q 31.984375 31.78125 28.328125 31.78125 
L 17.328125 31.78125 
L 17.328125 0 
z
M 17.328125 39.984375 
L 37.703125 39.984375 
Q 44.1875 39.984375 47.84375 41.328125 
Q 51.515625 42.671875 53.421875 45.625 
Q 55.328125 48.578125 55.328125 52.046875 
Q 55.328125 57.125 51.640625 60.390625 
Q 47.953125 63.671875 39.984375 63.671875 
L 17.328125 63.671875 
z
" id="ArialMT-82"/>
      <path d="M 40.4375 6.390625 
Q 35.546875 2.25 31.03125 0.53125 
Q 26.515625 -1.171875 21.34375 -1.171875 
Q 12.796875 -1.171875 8.203125 3 
Q 3.609375 7.171875 3.609375 13.671875 
Q 3.609375 17.484375 5.34375 20.625 
Q 7.078125 23.78125 9.890625 25.6875 
Q 12.703125 27.59375 16.21875 28.5625 
Q 18.796875 29.25 24.03125 29.890625 
Q 34.671875 31.15625 39.703125 32.90625 
Q 39.75 34.71875 39.75 35.203125 
Q 39.75 40.578125 37.25 42.78125 
Q 33.890625 45.75 27.25 45.75 
Q 21.046875 45.75 18.09375 43.578125 
Q 15.140625 41.40625 13.71875 35.890625 
L 5.125 37.0625 
Q 6.296875 42.578125 8.984375 45.96875 
Q 11.671875 49.359375 16.75 51.1875 
Q 21.828125 53.03125 28.515625 53.03125 
Q 35.15625 53.03125 39.296875 51.46875 
Q 43.453125 49.90625 45.40625 47.53125 
Q 47.359375 45.171875 48.140625 41.546875 
Q 48.578125 39.3125 48.578125 33.453125 
L 48.578125 21.734375 
Q 48.578125 9.46875 49.140625 6.21875 
Q 49.703125 2.984375 51.375 0 
L 42.1875 0 
Q 40.828125 2.734375 40.4375 6.390625 
z
M 39.703125 26.03125 
Q 34.90625 24.078125 25.34375 22.703125 
Q 19.921875 21.921875 17.671875 20.9375 
Q 15.4375 19.96875 14.203125 18.09375 
Q 12.984375 16.21875 12.984375 13.921875 
Q 12.984375 10.40625 15.640625 8.0625 
Q 18.3125 5.71875 23.4375 5.71875 
Q 28.515625 5.71875 32.46875 7.9375 
Q 36.421875 10.15625 38.28125 14.015625 
Q 39.703125 17 39.703125 22.796875 
z
" id="ArialMT-97"/>
      <path d="M 6.59375 0 
L 6.59375 51.859375 
L 14.5 51.859375 
L 14.5 44.484375 
Q 20.21875 53.03125 31 53.03125 
Q 35.6875 53.03125 39.625 51.34375 
Q 43.5625 49.65625 45.515625 46.921875 
Q 47.46875 44.1875 48.25 40.4375 
Q 48.734375 37.984375 48.734375 31.890625 
L 48.734375 0 
L 39.9375 0 
L 39.9375 31.546875 
Q 39.9375 36.921875 38.90625 39.578125 
Q 37.890625 42.234375 35.28125 43.8125 
Q 32.671875 45.40625 29.15625 45.40625 
Q 23.53125 45.40625 19.453125 41.84375 
Q 15.375 38.28125 15.375 28.328125 
L 15.375 0 
z
" id="ArialMT-110"/>
      <path d="M 40.234375 0 
L 40.234375 6.546875 
Q 35.296875 -1.171875 25.734375 -1.171875 
Q 19.53125 -1.171875 14.328125 2.25 
Q 9.125 5.671875 6.265625 11.796875 
Q 3.421875 17.921875 3.421875 25.875 
Q 3.421875 33.640625 6 39.96875 
Q 8.59375 46.296875 13.765625 49.65625 
Q 18.953125 53.03125 25.34375 53.03125 
Q 30.03125 53.03125 33.6875 51.046875 
Q 37.359375 49.078125 39.65625 45.90625 
L 39.65625 71.578125 
L 48.390625 71.578125 
L 48.390625 0 
z
M 12.453125 25.875 
Q 12.453125 15.921875 16.640625 10.984375 
Q 20.84375 6.0625 26.5625 6.0625 
Q 32.328125 6.0625 36.34375 10.765625 
Q 40.375 15.484375 40.375 25.140625 
Q 40.375 35.796875 36.265625 40.765625 
Q 32.171875 45.75 26.171875 45.75 
Q 20.3125 45.75 16.375 40.96875 
Q 12.453125 36.1875 12.453125 25.875 
z
" id="ArialMT-100"/>
      <path d="M 3.328125 25.921875 
Q 3.328125 40.328125 11.328125 47.265625 
Q 18.015625 53.03125 27.640625 53.03125 
Q 38.328125 53.03125 45.109375 46.015625 
Q 51.90625 39.015625 51.90625 26.65625 
Q 51.90625 16.65625 48.90625 10.90625 
Q 45.90625 5.171875 40.15625 2 
Q 34.421875 -1.171875 27.640625 -1.171875 
Q 16.75 -1.171875 10.03125 5.8125 
Q 3.328125 12.796875 3.328125 25.921875 
z
M 12.359375 25.921875 
Q 12.359375 15.96875 16.703125 11.015625 
Q 21.046875 6.0625 27.640625 6.0625 
Q 34.1875 6.0625 38.53125 11.03125 
Q 42.875 16.015625 42.875 26.21875 
Q 42.875 35.84375 38.5 40.796875 
Q 34.125 45.75 27.640625 45.75 
Q 21.046875 45.75 16.703125 40.8125 
Q 12.359375 35.890625 12.359375 25.921875 
z
" id="ArialMT-111"/>
      <path d="M 6.59375 0 
L 6.59375 51.859375 
L 14.453125 51.859375 
L 14.453125 44.578125 
Q 16.890625 48.390625 20.9375 50.703125 
Q 25 53.03125 30.171875 53.03125 
Q 35.9375 53.03125 39.625 50.640625 
Q 43.3125 48.25 44.828125 43.953125 
Q 50.984375 53.03125 60.84375 53.03125 
Q 68.5625 53.03125 72.703125 48.75 
Q 76.859375 44.484375 76.859375 35.59375 
L 76.859375 0 
L 68.109375 0 
L 68.109375 32.671875 
Q 68.109375 37.9375 67.25 40.25 
Q 66.40625 42.578125 64.15625 43.984375 
Q 61.921875 45.40625 58.890625 45.40625 
Q 53.421875 45.40625 49.796875 41.765625 
Q 46.1875 38.140625 46.1875 30.125 
L 46.1875 0 
L 37.40625 0 
L 37.40625 33.6875 
Q 37.40625 39.546875 35.25 42.46875 
Q 33.109375 45.40625 28.21875 45.40625 
Q 24.515625 45.40625 21.359375 43.453125 
Q 18.21875 41.5 16.796875 37.734375 
Q 15.375 33.984375 15.375 26.90625 
L 15.375 0 
z
" id="ArialMT-109"/>
     </defs>
     <g transform="translate(702.7275 100.325)scale(0.16 -0.16)">
      <use xlink:href="#ArialMT-82"/>
      <use x="72.216797" xlink:href="#ArialMT-97"/>
      <use x="127.832031" xlink:href="#ArialMT-110"/>
      <use x="183.447266" xlink:href="#ArialMT-100"/>
      <use x="239.0625" xlink:href="#ArialMT-111"/>
      <use x="294.677734" xlink:href="#ArialMT-109"/>
     </g>
    </g>
   </g>
  </g>
 </g>
 <defs>
  <clipPath id="p6eca7305f4">
   <rect height="326.16" width="669.6" x="108" y="51.84"/>
  </clipPath>
 </defs>
</svg>
