<?xml version="1.0" encoding="utf-8" standalone="no"?>
<!DOCTYPE svg PUBLIC "-//W3C//DTD SVG 1.1//EN"
  "http://www.w3.org/Graphics/SVG/1.1/DTD/svg11.dtd">
<!-- Created with matplotlib (https://matplotlib.org/) -->
<svg height="288pt" version="1.1" viewBox="0 0 432 288" width="432pt" xmlns="http://www.w3.org/2000/svg" xmlns:xlink="http://www.w3.org/1999/xlink">
 <defs>
  <style type="text/css">
*{stroke-linecap:butt;stroke-linejoin:round;}
  </style>
 </defs>
 <g id="figure_1">
  <g id="patch_1">
   <path d="M 0 288 
L 432 288 
L 432 0 
L 0 0 
z
" style="fill:#ffffff;"/>
  </g>
  <g id="axes_1">
   <g id="patch_2">
    <path d="M 54 252 
L 388.8 252 
L 388.8 34.56 
L 54 34.56 
z
" style="fill:#ffffff;"/>
   </g>
   <g id="patch_3">
    <path clip-path="url(#pe2ef5d527c)" d="M 138.827333 252 
L 151.851577 252 
L 151.851577 249.810735 
L 138.827333 249.810735 
z
" style="fill:#1f77b4;opacity:0.4;"/>
   </g>
   <g id="patch_4">
    <path clip-path="url(#pe2ef5d527c)" d="M 151.851577 252 
L 164.875821 252 
L 164.875821 249.810735 
L 151.851577 249.810735 
z
" style="fill:#1f77b4;opacity:0.4;"/>
   </g>
   <g id="patch_5">
    <path clip-path="url(#pe2ef5d527c)" d="M 164.875821 252 
L 177.900066 252 
L 177.900066 245.432206 
L 164.875821 245.432206 
z
" style="fill:#1f77b4;opacity:0.4;"/>
   </g>
   <g id="patch_6">
    <path clip-path="url(#pe2ef5d527c)" d="M 177.900066 252 
L 190.92431 252 
L 190.92431 223.539559 
L 177.900066 223.539559 
z
" style="fill:#1f77b4;opacity:0.4;"/>
   </g>
   <g id="patch_7">
    <path clip-path="url(#pe2ef5d527c)" d="M 190.92431 252 
L 203.948554 252 
L 203.948554 225.728824 
L 190.92431 225.728824 
z
" style="fill:#1f77b4;opacity:0.4;"/>
   </g>
   <g id="patch_8">
    <path clip-path="url(#pe2ef5d527c)" d="M 203.948554 252 
L 216.972798 252 
L 216.972798 199.457648 
L 203.948554 199.457648 
z
" style="fill:#1f77b4;opacity:0.4;"/>
   </g>
   <g id="patch_9">
    <path clip-path="url(#pe2ef5d527c)" d="M 216.972798 252 
L 229.997042 252 
L 229.997042 184.132795 
L 216.972798 184.132795 
z
" style="fill:#1f77b4;opacity:0.4;"/>
   </g>
   <g id="patch_10">
    <path clip-path="url(#pe2ef5d527c)" d="M 229.997042 252 
L 243.021287 252 
L 243.021287 153.48309 
L 229.997042 153.48309 
z
" style="fill:#1f77b4;opacity:0.4;"/>
   </g>
   <g id="patch_11">
    <path clip-path="url(#pe2ef5d527c)" d="M 243.021287 252 
L 256.045531 252 
L 256.045531 186.32206 
L 243.021287 186.32206 
z
" style="fill:#1f77b4;opacity:0.4;"/>
   </g>
   <g id="patch_12">
    <path clip-path="url(#pe2ef5d527c)" d="M 256.045531 252 
L 269.069775 252 
L 269.069775 223.539559 
L 256.045531 223.539559 
z
" style="fill:#1f77b4;opacity:0.4;"/>
   </g>
   <g id="patch_13">
    <path clip-path="url(#pe2ef5d527c)" d="M 269.069775 252 
L 282.094019 252 
L 282.094019 206.025442 
L 269.069775 206.025442 
z
" style="fill:#1f77b4;opacity:0.4;"/>
   </g>
   <g id="patch_14">
    <path clip-path="url(#pe2ef5d527c)" d="M 282.094019 252 
L 295.118263 252 
L 295.118263 208.214707 
L 282.094019 208.214707 
z
" style="fill:#1f77b4;opacity:0.4;"/>
   </g>
   <g id="patch_15">
    <path clip-path="url(#pe2ef5d527c)" d="M 159.364013 252 
L 166.5003 252 
L 166.5003 240.895435 
L 159.364013 240.895435 
z
" style="fill:#ff7f0e;opacity:0.4;"/>
   </g>
   <g id="patch_16">
    <path clip-path="url(#pe2ef5d527c)" d="M 166.5003 252 
L 173.636587 252 
L 173.636587 252 
L 166.5003 252 
z
" style="fill:#ff7f0e;opacity:0.4;"/>
   </g>
   <g id="patch_17">
    <path clip-path="url(#pe2ef5d527c)" d="M 173.636587 252 
L 180.772873 252 
L 180.772873 252 
L 173.636587 252 
z
" style="fill:#ff7f0e;opacity:0.4;"/>
   </g>
   <g id="patch_18">
    <path clip-path="url(#pe2ef5d527c)" d="M 180.772873 252 
L 187.90916 252 
L 187.90916 246.447718 
L 180.772873 246.447718 
z
" style="fill:#ff7f0e;opacity:0.4;"/>
   </g>
   <g id="patch_19">
    <path clip-path="url(#pe2ef5d527c)" d="M 187.90916 252 
L 195.045447 252 
L 195.045447 229.79087 
L 187.90916 229.79087 
z
" style="fill:#ff7f0e;opacity:0.4;"/>
   </g>
   <g id="patch_20">
    <path clip-path="url(#pe2ef5d527c)" d="M 195.045447 252 
L 202.181734 252 
L 202.181734 224.238588 
L 195.045447 224.238588 
z
" style="fill:#ff7f0e;opacity:0.4;"/>
   </g>
   <g id="patch_21">
    <path clip-path="url(#pe2ef5d527c)" d="M 202.181734 252 
L 209.318021 252 
L 209.318021 213.134023 
L 202.181734 213.134023 
z
" style="fill:#ff7f0e;opacity:0.4;"/>
   </g>
   <g id="patch_22">
    <path clip-path="url(#pe2ef5d527c)" d="M 209.318021 252 
L 216.454307 252 
L 216.454307 179.820328 
L 209.318021 179.820328 
z
" style="fill:#ff7f0e;opacity:0.4;"/>
   </g>
   <g id="patch_23">
    <path clip-path="url(#pe2ef5d527c)" d="M 216.454307 252 
L 223.590594 252 
L 223.590594 57.670113 
L 216.454307 57.670113 
z
" style="fill:#ff7f0e;opacity:0.4;"/>
   </g>
   <g id="patch_24">
    <path clip-path="url(#pe2ef5d527c)" d="M 223.590594 252 
L 230.726881 252 
L 230.726881 118.74522 
L 223.590594 118.74522 
z
" style="fill:#ff7f0e;opacity:0.4;"/>
   </g>
   <g id="patch_25">
    <path clip-path="url(#pe2ef5d527c)" d="M 230.726881 252 
L 237.863168 252 
L 237.863168 135.402068 
L 230.726881 135.402068 
z
" style="fill:#ff7f0e;opacity:0.4;"/>
   </g>
   <g id="patch_26">
    <path clip-path="url(#pe2ef5d527c)" d="M 237.863168 252 
L 244.999455 252 
L 244.999455 135.402068 
L 237.863168 135.402068 
z
" style="fill:#ff7f0e;opacity:0.4;"/>
   </g>
   <g id="patch_27">
    <path clip-path="url(#pe2ef5d527c)" d="M 244.999455 252 
L 252.135742 252 
L 252.135742 190.924893 
L 244.999455 190.924893 
z
" style="fill:#ff7f0e;opacity:0.4;"/>
   </g>
   <g id="patch_28">
    <path clip-path="url(#pe2ef5d527c)" d="M 252.135742 252 
L 259.272028 252 
L 259.272028 218.686305 
L 252.135742 218.686305 
z
" style="fill:#ff7f0e;opacity:0.4;"/>
   </g>
   <g id="patch_29">
    <path clip-path="url(#pe2ef5d527c)" d="M 259.272028 252 
L 266.408315 252 
L 266.408315 229.79087 
L 259.272028 229.79087 
z
" style="fill:#ff7f0e;opacity:0.4;"/>
   </g>
   <g id="patch_30">
    <path clip-path="url(#pe2ef5d527c)" d="M 90.563781 252 
L 97.044175 252 
L 97.044175 248.764286 
L 90.563781 248.764286 
z
" style="fill:#2ca02c;opacity:0.4;"/>
   </g>
   <g id="patch_31">
    <path clip-path="url(#pe2ef5d527c)" d="M 97.044175 252 
L 103.524569 252 
L 103.524569 252 
L 97.044175 252 
z
" style="fill:#2ca02c;opacity:0.4;"/>
   </g>
   <g id="patch_32">
    <path clip-path="url(#pe2ef5d527c)" d="M 103.524569 252 
L 110.004963 252 
L 110.004963 252 
L 103.524569 252 
z
" style="fill:#2ca02c;opacity:0.4;"/>
   </g>
   <g id="patch_33">
    <path clip-path="url(#pe2ef5d527c)" d="M 110.004963 252 
L 116.485357 252 
L 116.485357 252 
L 110.004963 252 
z
" style="fill:#2ca02c;opacity:0.4;"/>
   </g>
   <g id="patch_34">
    <path clip-path="url(#pe2ef5d527c)" d="M 116.485357 252 
L 122.965751 252 
L 122.965751 252 
L 116.485357 252 
z
" style="fill:#2ca02c;opacity:0.4;"/>
   </g>
   <g id="patch_35">
    <path clip-path="url(#pe2ef5d527c)" d="M 122.965751 252 
L 129.446145 252 
L 129.446145 252 
L 122.965751 252 
z
" style="fill:#2ca02c;opacity:0.4;"/>
   </g>
   <g id="patch_36">
    <path clip-path="url(#pe2ef5d527c)" d="M 129.446145 252 
L 135.926539 252 
L 135.926539 252 
L 129.446145 252 
z
" style="fill:#2ca02c;opacity:0.4;"/>
   </g>
   <g id="patch_37">
    <path clip-path="url(#pe2ef5d527c)" d="M 135.926539 252 
L 142.406934 252 
L 142.406934 248.764286 
L 135.926539 248.764286 
z
" style="fill:#2ca02c;opacity:0.4;"/>
   </g>
   <g id="patch_38">
    <path clip-path="url(#pe2ef5d527c)" d="M 142.406934 252 
L 148.887328 252 
L 148.887328 252 
L 142.406934 252 
z
" style="fill:#2ca02c;opacity:0.4;"/>
   </g>
   <g id="patch_39">
    <path clip-path="url(#pe2ef5d527c)" d="M 148.887328 252 
L 155.367722 252 
L 155.367722 226.114286 
L 148.887328 226.114286 
z
" style="fill:#2ca02c;opacity:0.4;"/>
   </g>
   <g id="patch_40">
    <path clip-path="url(#pe2ef5d527c)" d="M 155.367722 252 
L 161.848116 252 
L 161.848116 239.057143 
L 155.367722 239.057143 
z
" style="fill:#2ca02c;opacity:0.4;"/>
   </g>
   <g id="patch_41">
    <path clip-path="url(#pe2ef5d527c)" d="M 161.848116 252 
L 168.32851 252 
L 168.32851 248.764286 
L 161.848116 248.764286 
z
" style="fill:#2ca02c;opacity:0.4;"/>
   </g>
   <g id="patch_42">
    <path clip-path="url(#pe2ef5d527c)" d="M 168.32851 252 
L 174.808904 252 
L 174.808904 235.821429 
L 168.32851 235.821429 
z
" style="fill:#2ca02c;opacity:0.4;"/>
   </g>
   <g id="patch_43">
    <path clip-path="url(#pe2ef5d527c)" d="M 174.808904 252 
L 181.289298 252 
L 181.289298 232.585714 
L 174.808904 232.585714 
z
" style="fill:#2ca02c;opacity:0.4;"/>
   </g>
   <g id="patch_44">
    <path clip-path="url(#pe2ef5d527c)" d="M 181.289298 252 
L 187.769692 252 
L 187.769692 235.821429 
L 181.289298 235.821429 
z
" style="fill:#2ca02c;opacity:0.4;"/>
   </g>
   <g id="patch_45">
    <path clip-path="url(#pe2ef5d527c)" d="M 187.769692 252 
L 194.250086 252 
L 194.250086 219.642857 
L 187.769692 219.642857 
z
" style="fill:#2ca02c;opacity:0.4;"/>
   </g>
   <g id="patch_46">
    <path clip-path="url(#pe2ef5d527c)" d="M 194.250086 252 
L 200.73048 252 
L 200.73048 229.35 
L 194.250086 229.35 
z
" style="fill:#2ca02c;opacity:0.4;"/>
   </g>
   <g id="patch_47">
    <path clip-path="url(#pe2ef5d527c)" d="M 200.73048 252 
L 207.210874 252 
L 207.210874 229.35 
L 200.73048 229.35 
z
" style="fill:#2ca02c;opacity:0.4;"/>
   </g>
   <g id="patch_48">
    <path clip-path="url(#pe2ef5d527c)" d="M 207.210874 252 
L 213.691268 252 
L 213.691268 180.814286 
L 207.210874 180.814286 
z
" style="fill:#2ca02c;opacity:0.4;"/>
   </g>
   <g id="patch_49">
    <path clip-path="url(#pe2ef5d527c)" d="M 213.691268 252 
L 220.171662 252 
L 220.171662 132.278571 
L 213.691268 132.278571 
z
" style="fill:#2ca02c;opacity:0.4;"/>
   </g>
   <g id="patch_50">
    <path clip-path="url(#pe2ef5d527c)" d="M 220.171662 252 
L 226.652057 252 
L 226.652057 44.914286 
L 220.171662 44.914286 
z
" style="fill:#2ca02c;opacity:0.4;"/>
   </g>
   <g id="patch_51">
    <path clip-path="url(#pe2ef5d527c)" d="M 226.652057 252 
L 233.132451 252 
L 233.132451 125.807143 
L 226.652057 125.807143 
z
" style="fill:#2ca02c;opacity:0.4;"/>
   </g>
   <g id="patch_52">
    <path clip-path="url(#pe2ef5d527c)" d="M 233.132451 252 
L 239.612845 252 
L 239.612845 167.871429 
L 233.132451 167.871429 
z
" style="fill:#2ca02c;opacity:0.4;"/>
   </g>
   <g id="patch_53">
    <path clip-path="url(#pe2ef5d527c)" d="M 239.612845 252 
L 246.093239 252 
L 246.093239 164.635714 
L 239.612845 164.635714 
z
" style="fill:#2ca02c;opacity:0.4;"/>
   </g>
   <g id="patch_54">
    <path clip-path="url(#pe2ef5d527c)" d="M 246.093239 252 
L 252.573633 252 
L 252.573633 213.171429 
L 246.093239 213.171429 
z
" style="fill:#2ca02c;opacity:0.4;"/>
   </g>
   <g id="patch_55">
    <path clip-path="url(#pe2ef5d527c)" d="M 252.573633 252 
L 259.054027 252 
L 259.054027 232.585714 
L 252.573633 232.585714 
z
" style="fill:#2ca02c;opacity:0.4;"/>
   </g>
   <g id="patch_56">
    <path clip-path="url(#pe2ef5d527c)" d="M 259.054027 252 
L 265.534421 252 
L 265.534421 248.764286 
L 259.054027 248.764286 
z
" style="fill:#2ca02c;opacity:0.4;"/>
   </g>
   <g id="patch_57">
    <path clip-path="url(#pe2ef5d527c)" d="M 265.534421 252 
L 272.014815 252 
L 272.014815 248.764286 
L 265.534421 248.764286 
z
" style="fill:#2ca02c;opacity:0.4;"/>
   </g>
   <g id="patch_58">
    <path clip-path="url(#pe2ef5d527c)" d="M 272.014815 252 
L 278.495209 252 
L 278.495209 252 
L 272.014815 252 
z
" style="fill:#2ca02c;opacity:0.4;"/>
   </g>
   <g id="patch_59">
    <path clip-path="url(#pe2ef5d527c)" d="M 278.495209 252 
L 284.975603 252 
L 284.975603 252 
L 278.495209 252 
z
" style="fill:#2ca02c;opacity:0.4;"/>
   </g>
   <g id="patch_60">
    <path clip-path="url(#pe2ef5d527c)" d="M 284.975603 252 
L 291.455997 252 
L 291.455997 248.764286 
L 284.975603 248.764286 
z
" style="fill:#2ca02c;opacity:0.4;"/>
   </g>
   <g id="patch_61">
    <path clip-path="url(#pe2ef5d527c)" d="M 90.563781 252 
L 97.105592 252 
L 97.105592 250.121344 
L 90.563781 250.121344 
z
" style="fill:#d62728;opacity:0.4;"/>
   </g>
   <g id="patch_62">
    <path clip-path="url(#pe2ef5d527c)" d="M 97.105592 252 
L 103.647403 252 
L 103.647403 252 
L 97.105592 252 
z
" style="fill:#d62728;opacity:0.4;"/>
   </g>
   <g id="patch_63">
    <path clip-path="url(#pe2ef5d527c)" d="M 103.647403 252 
L 110.189214 252 
L 110.189214 251.530336 
L 103.647403 251.530336 
z
" style="fill:#d62728;opacity:0.4;"/>
   </g>
   <g id="patch_64">
    <path clip-path="url(#pe2ef5d527c)" d="M 110.189214 252 
L 116.731025 252 
L 116.731025 252 
L 110.189214 252 
z
" style="fill:#d62728;opacity:0.4;"/>
   </g>
   <g id="patch_65">
    <path clip-path="url(#pe2ef5d527c)" d="M 116.731025 252 
L 123.272836 252 
L 123.272836 246.833695 
L 116.731025 246.833695 
z
" style="fill:#d62728;opacity:0.4;"/>
   </g>
   <g id="patch_66">
    <path clip-path="url(#pe2ef5d527c)" d="M 123.272836 252 
L 129.814647 252 
L 129.814647 245.424703 
L 123.272836 245.424703 
z
" style="fill:#d62728;opacity:0.4;"/>
   </g>
   <g id="patch_67">
    <path clip-path="url(#pe2ef5d527c)" d="M 129.814647 252 
L 136.356458 252 
L 136.356458 249.182016 
L 129.814647 249.182016 
z
" style="fill:#d62728;opacity:0.4;"/>
   </g>
   <g id="patch_68">
    <path clip-path="url(#pe2ef5d527c)" d="M 136.356458 252 
L 142.898269 252 
L 142.898269 230.395453 
L 136.356458 230.395453 
z
" style="fill:#d62728;opacity:0.4;"/>
   </g>
   <g id="patch_69">
    <path clip-path="url(#pe2ef5d527c)" d="M 142.898269 252 
L 149.440079 252 
L 149.440079 234.152765 
L 142.898269 234.152765 
z
" style="fill:#d62728;opacity:0.4;"/>
   </g>
   <g id="patch_70">
    <path clip-path="url(#pe2ef5d527c)" d="M 149.440079 252 
L 155.98189 252 
L 155.98189 231.334781 
L 149.440079 231.334781 
z
" style="fill:#d62728;opacity:0.4;"/>
   </g>
   <g id="patch_71">
    <path clip-path="url(#pe2ef5d527c)" d="M 155.98189 252 
L 162.523701 252 
L 162.523701 228.047132 
L 155.98189 228.047132 
z
" style="fill:#d62728;opacity:0.4;"/>
   </g>
   <g id="patch_72">
    <path clip-path="url(#pe2ef5d527c)" d="M 162.523701 252 
L 169.065512 252 
L 169.065512 226.168476 
L 162.523701 226.168476 
z
" style="fill:#d62728;opacity:0.4;"/>
   </g>
   <g id="patch_73">
    <path clip-path="url(#pe2ef5d527c)" d="M 169.065512 252 
L 175.607323 252 
L 175.607323 224.28982 
L 169.065512 224.28982 
z
" style="fill:#d62728;opacity:0.4;"/>
   </g>
   <g id="patch_74">
    <path clip-path="url(#pe2ef5d527c)" d="M 175.607323 252 
L 182.149134 252 
L 182.149134 213.487546 
L 175.607323 213.487546 
z
" style="fill:#d62728;opacity:0.4;"/>
   </g>
   <g id="patch_75">
    <path clip-path="url(#pe2ef5d527c)" d="M 182.149134 252 
L 188.690945 252 
L 188.690945 191.413335 
L 182.149134 191.413335 
z
" style="fill:#d62728;opacity:0.4;"/>
   </g>
   <g id="patch_76">
    <path clip-path="url(#pe2ef5d527c)" d="M 188.690945 252 
L 195.232756 252 
L 195.232756 164.172819 
L 188.690945 164.172819 
z
" style="fill:#d62728;opacity:0.4;"/>
   </g>
   <g id="patch_77">
    <path clip-path="url(#pe2ef5d527c)" d="M 195.232756 252 
L 201.774567 252 
L 201.774567 181.080725 
L 195.232756 181.080725 
z
" style="fill:#d62728;opacity:0.4;"/>
   </g>
   <g id="patch_78">
    <path clip-path="url(#pe2ef5d527c)" d="M 201.774567 252 
L 208.316378 252 
L 208.316378 188.125686 
L 201.774567 188.125686 
z
" style="fill:#d62728;opacity:0.4;"/>
   </g>
   <g id="patch_79">
    <path clip-path="url(#pe2ef5d527c)" d="M 208.316378 252 
L 214.858189 252 
L 214.858189 180.611061 
L 208.316378 180.611061 
z
" style="fill:#d62728;opacity:0.4;"/>
   </g>
   <g id="patch_80">
    <path clip-path="url(#pe2ef5d527c)" d="M 214.858189 252 
L 221.4 252 
L 221.4 174.505428 
L 214.858189 174.505428 
z
" style="fill:#d62728;opacity:0.4;"/>
   </g>
   <g id="patch_81">
    <path clip-path="url(#pe2ef5d527c)" d="M 221.4 252 
L 227.941811 252 
L 227.941811 177.323413 
L 221.4 177.323413 
z
" style="fill:#d62728;opacity:0.4;"/>
   </g>
   <g id="patch_82">
    <path clip-path="url(#pe2ef5d527c)" d="M 227.941811 252 
L 234.483622 252 
L 234.483622 196.57964 
L 227.941811 196.57964 
z
" style="fill:#d62728;opacity:0.4;"/>
   </g>
   <g id="patch_83">
    <path clip-path="url(#pe2ef5d527c)" d="M 234.483622 252 
L 241.025433 252 
L 241.025433 199.867288 
L 234.483622 199.867288 
z
" style="fill:#d62728;opacity:0.4;"/>
   </g>
   <g id="patch_84">
    <path clip-path="url(#pe2ef5d527c)" d="M 241.025433 252 
L 247.567244 252 
L 247.567244 216.775195 
L 241.025433 216.775195 
z
" style="fill:#d62728;opacity:0.4;"/>
   </g>
   <g id="patch_85">
    <path clip-path="url(#pe2ef5d527c)" d="M 247.567244 252 
L 254.109055 252 
L 254.109055 224.28982 
L 247.567244 224.28982 
z
" style="fill:#d62728;opacity:0.4;"/>
   </g>
   <g id="patch_86">
    <path clip-path="url(#pe2ef5d527c)" d="M 254.109055 252 
L 260.650866 252 
L 260.650866 233.213437 
L 254.109055 233.213437 
z
" style="fill:#d62728;opacity:0.4;"/>
   </g>
   <g id="patch_87">
    <path clip-path="url(#pe2ef5d527c)" d="M 260.650866 252 
L 267.192677 252 
L 267.192677 240.258398 
L 260.650866 240.258398 
z
" style="fill:#d62728;opacity:0.4;"/>
   </g>
   <g id="patch_88">
    <path clip-path="url(#pe2ef5d527c)" d="M 267.192677 252 
L 273.734488 252 
L 273.734488 244.485375 
L 267.192677 244.485375 
z
" style="fill:#d62728;opacity:0.4;"/>
   </g>
   <g id="patch_89">
    <path clip-path="url(#pe2ef5d527c)" d="M 273.734488 252 
L 280.276299 252 
L 280.276299 242.137055 
L 273.734488 242.137055 
z
" style="fill:#d62728;opacity:0.4;"/>
   </g>
   <g id="patch_90">
    <path clip-path="url(#pe2ef5d527c)" d="M 280.276299 252 
L 286.81811 252 
L 286.81811 246.364031 
L 280.276299 246.364031 
z
" style="fill:#d62728;opacity:0.4;"/>
   </g>
   <g id="patch_91">
    <path clip-path="url(#pe2ef5d527c)" d="M 286.81811 252 
L 293.359921 252 
L 293.359921 246.833695 
L 286.81811 246.833695 
z
" style="fill:#d62728;opacity:0.4;"/>
   </g>
   <g id="patch_92">
    <path clip-path="url(#pe2ef5d527c)" d="M 293.359921 252 
L 299.901731 252 
L 299.901731 250.591008 
L 293.359921 250.591008 
z
" style="fill:#d62728;opacity:0.4;"/>
   </g>
   <g id="patch_93">
    <path clip-path="url(#pe2ef5d527c)" d="M 299.901731 252 
L 306.443542 252 
L 306.443542 251.060672 
L 299.901731 251.060672 
z
" style="fill:#d62728;opacity:0.4;"/>
   </g>
   <g id="patch_94">
    <path clip-path="url(#pe2ef5d527c)" d="M 306.443542 252 
L 312.985353 252 
L 312.985353 252 
L 306.443542 252 
z
" style="fill:#d62728;opacity:0.4;"/>
   </g>
   <g id="patch_95">
    <path clip-path="url(#pe2ef5d527c)" d="M 312.985353 252 
L 319.527164 252 
L 319.527164 252 
L 312.985353 252 
z
" style="fill:#d62728;opacity:0.4;"/>
   </g>
   <g id="patch_96">
    <path clip-path="url(#pe2ef5d527c)" d="M 319.527164 252 
L 326.068975 252 
L 326.068975 252 
L 319.527164 252 
z
" style="fill:#d62728;opacity:0.4;"/>
   </g>
   <g id="patch_97">
    <path clip-path="url(#pe2ef5d527c)" d="M 326.068975 252 
L 332.610786 252 
L 332.610786 252 
L 326.068975 252 
z
" style="fill:#d62728;opacity:0.4;"/>
   </g>
   <g id="patch_98">
    <path clip-path="url(#pe2ef5d527c)" d="M 332.610786 252 
L 339.152597 252 
L 339.152597 251.530336 
L 332.610786 251.530336 
z
" style="fill:#d62728;opacity:0.4;"/>
   </g>
   <g id="patch_99">
    <path clip-path="url(#pe2ef5d527c)" d="M 339.152597 252 
L 345.694408 252 
L 345.694408 251.530336 
L 339.152597 251.530336 
z
" style="fill:#d62728;opacity:0.4;"/>
   </g>
   <g id="patch_100">
    <path clip-path="url(#pe2ef5d527c)" d="M 345.694408 252 
L 352.236219 252 
L 352.236219 251.530336 
L 345.694408 251.530336 
z
" style="fill:#d62728;opacity:0.4;"/>
   </g>
   <g id="matplotlib.axis_1">
    <g id="xtick_1">
     <g id="line2d_1">
      <defs>
       <path d="M 0 0 
L 0 3.5 
" id="m970940a1a9" style="stroke:#000000;stroke-width:1.2;"/>
      </defs>
      <g>
       <use style="stroke:#000000;stroke-width:1.2;" x="70.134285" xlink:href="#m970940a1a9" y="252"/>
      </g>
     </g>
     <g id="text_1">
      <!-- 0 -->
      <defs>
       <path d="M 4.15625 35.296875 
Q 4.15625 48 6.765625 55.734375 
Q 9.375 63.484375 14.515625 67.671875 
Q 19.671875 71.875 27.484375 71.875 
Q 33.25 71.875 37.59375 69.546875 
Q 41.9375 67.234375 44.765625 62.859375 
Q 47.609375 58.5 49.21875 52.21875 
Q 50.828125 45.953125 50.828125 35.296875 
Q 50.828125 22.703125 48.234375 14.96875 
Q 45.65625 7.234375 40.5 3 
Q 35.359375 -1.21875 27.484375 -1.21875 
Q 17.140625 -1.21875 11.234375 6.203125 
Q 4.15625 15.140625 4.15625 35.296875 
z
M 13.1875 35.296875 
Q 13.1875 17.671875 17.3125 11.828125 
Q 21.4375 6 27.484375 6 
Q 33.546875 6 37.671875 11.859375 
Q 41.796875 17.71875 41.796875 35.296875 
Q 41.796875 52.984375 37.671875 58.78125 
Q 33.546875 64.59375 27.390625 64.59375 
Q 21.34375 64.59375 17.71875 59.46875 
Q 13.1875 52.9375 13.1875 35.296875 
z
" id="ArialMT-48"/>
      </defs>
      <g transform="translate(66.797722 267.589375)scale(0.12 -0.12)">
       <use xlink:href="#ArialMT-48"/>
      </g>
     </g>
    </g>
    <g id="xtick_2">
     <g id="line2d_2">
      <g>
       <use style="stroke:#000000;stroke-width:1.2;" x="134.247435" xlink:href="#m970940a1a9" y="252"/>
      </g>
     </g>
     <g id="text_2">
      <!-- 5 -->
      <defs>
       <path d="M 4.15625 18.75 
L 13.375 19.53125 
Q 14.40625 12.796875 18.140625 9.390625 
Q 21.875 6 27.15625 6 
Q 33.5 6 37.890625 10.78125 
Q 42.28125 15.578125 42.28125 23.484375 
Q 42.28125 31 38.0625 35.34375 
Q 33.84375 39.703125 27 39.703125 
Q 22.75 39.703125 19.328125 37.765625 
Q 15.921875 35.84375 13.96875 32.765625 
L 5.71875 33.84375 
L 12.640625 70.609375 
L 48.25 70.609375 
L 48.25 62.203125 
L 19.671875 62.203125 
L 15.828125 42.96875 
Q 22.265625 47.46875 29.34375 47.46875 
Q 38.71875 47.46875 45.15625 40.96875 
Q 51.609375 34.46875 51.609375 24.265625 
Q 51.609375 14.546875 45.953125 7.46875 
Q 39.0625 -1.21875 27.15625 -1.21875 
Q 17.390625 -1.21875 11.203125 4.25 
Q 5.03125 9.71875 4.15625 18.75 
z
" id="ArialMT-53"/>
      </defs>
      <g transform="translate(130.910873 267.589375)scale(0.12 -0.12)">
       <use xlink:href="#ArialMT-53"/>
      </g>
     </g>
    </g>
    <g id="xtick_3">
     <g id="line2d_3">
      <g>
       <use style="stroke:#000000;stroke-width:1.2;" x="198.360586" xlink:href="#m970940a1a9" y="252"/>
      </g>
     </g>
     <g id="text_3">
      <!-- 10 -->
      <defs>
       <path d="M 37.25 0 
L 28.46875 0 
L 28.46875 56 
Q 25.296875 52.984375 20.140625 49.953125 
Q 14.984375 46.921875 10.890625 45.40625 
L 10.890625 53.90625 
Q 18.265625 57.375 23.78125 62.296875 
Q 29.296875 67.234375 31.59375 71.875 
L 37.25 71.875 
z
" id="ArialMT-49"/>
      </defs>
      <g transform="translate(191.687461 267.589375)scale(0.12 -0.12)">
       <use xlink:href="#ArialMT-49"/>
       <use x="55.615234" xlink:href="#ArialMT-48"/>
      </g>
     </g>
    </g>
    <g id="xtick_4">
     <g id="line2d_4">
      <g>
       <use style="stroke:#000000;stroke-width:1.2;" x="262.473737" xlink:href="#m970940a1a9" y="252"/>
      </g>
     </g>
     <g id="text_4">
      <!-- 15 -->
      <g transform="translate(255.800612 267.589375)scale(0.12 -0.12)">
       <use xlink:href="#ArialMT-49"/>
       <use x="55.615234" xlink:href="#ArialMT-53"/>
      </g>
     </g>
    </g>
    <g id="xtick_5">
     <g id="line2d_5">
      <g>
       <use style="stroke:#000000;stroke-width:1.2;" x="326.586887" xlink:href="#m970940a1a9" y="252"/>
      </g>
     </g>
     <g id="text_5">
      <!-- 20 -->
      <defs>
       <path d="M 50.34375 8.453125 
L 50.34375 0 
L 3.03125 0 
Q 2.9375 3.171875 4.046875 6.109375 
Q 5.859375 10.9375 9.828125 15.625 
Q 13.8125 20.3125 21.34375 26.46875 
Q 33.015625 36.03125 37.109375 41.625 
Q 41.21875 47.21875 41.21875 52.203125 
Q 41.21875 57.421875 37.46875 61 
Q 33.734375 64.59375 27.734375 64.59375 
Q 21.390625 64.59375 17.578125 60.78125 
Q 13.765625 56.984375 13.71875 50.25 
L 4.6875 51.171875 
Q 5.609375 61.28125 11.65625 66.578125 
Q 17.71875 71.875 27.9375 71.875 
Q 38.234375 71.875 44.234375 66.15625 
Q 50.25 60.453125 50.25 52 
Q 50.25 47.703125 48.484375 43.546875 
Q 46.734375 39.40625 42.65625 34.8125 
Q 38.578125 30.21875 29.109375 22.21875 
Q 21.1875 15.578125 18.9375 13.203125 
Q 16.703125 10.84375 15.234375 8.453125 
z
" id="ArialMT-50"/>
      </defs>
      <g transform="translate(319.913762 267.589375)scale(0.12 -0.12)">
       <use xlink:href="#ArialMT-50"/>
       <use x="55.615234" xlink:href="#ArialMT-48"/>
      </g>
     </g>
    </g>
    <g id="text_6">
     <!-- Potential Yield -->
     <defs>
      <path d="M 7.71875 0 
L 7.71875 71.578125 
L 34.71875 71.578125 
Q 41.84375 71.578125 45.609375 70.90625 
Q 50.875 70.015625 54.4375 67.546875 
Q 58.015625 65.09375 60.1875 60.640625 
Q 62.359375 56.203125 62.359375 50.875 
Q 62.359375 41.75 56.546875 35.421875 
Q 50.734375 29.109375 35.546875 29.109375 
L 17.1875 29.109375 
L 17.1875 0 
z
M 17.1875 37.546875 
L 35.6875 37.546875 
Q 44.875 37.546875 48.734375 40.96875 
Q 52.59375 44.390625 52.59375 50.59375 
Q 52.59375 55.078125 50.3125 58.265625 
Q 48.046875 61.46875 44.34375 62.5 
Q 41.9375 63.140625 35.5 63.140625 
L 17.1875 63.140625 
z
" id="ArialMT-80"/>
      <path d="M 3.328125 25.921875 
Q 3.328125 40.328125 11.328125 47.265625 
Q 18.015625 53.03125 27.640625 53.03125 
Q 38.328125 53.03125 45.109375 46.015625 
Q 51.90625 39.015625 51.90625 26.65625 
Q 51.90625 16.65625 48.90625 10.90625 
Q 45.90625 5.171875 40.15625 2 
Q 34.421875 -1.171875 27.640625 -1.171875 
Q 16.75 -1.171875 10.03125 5.8125 
Q 3.328125 12.796875 3.328125 25.921875 
z
M 12.359375 25.921875 
Q 12.359375 15.96875 16.703125 11.015625 
Q 21.046875 6.0625 27.640625 6.0625 
Q 34.1875 6.0625 38.53125 11.03125 
Q 42.875 16.015625 42.875 26.21875 
Q 42.875 35.84375 38.5 40.796875 
Q 34.125 45.75 27.640625 45.75 
Q 21.046875 45.75 16.703125 40.8125 
Q 12.359375 35.890625 12.359375 25.921875 
z
" id="ArialMT-111"/>
      <path d="M 25.78125 7.859375 
L 27.046875 0.09375 
Q 23.34375 -0.6875 20.40625 -0.6875 
Q 15.625 -0.6875 12.984375 0.828125 
Q 10.359375 2.34375 9.28125 4.8125 
Q 8.203125 7.28125 8.203125 15.1875 
L 8.203125 45.015625 
L 1.765625 45.015625 
L 1.765625 51.859375 
L 8.203125 51.859375 
L 8.203125 64.703125 
L 16.9375 69.96875 
L 16.9375 51.859375 
L 25.78125 51.859375 
L 25.78125 45.015625 
L 16.9375 45.015625 
L 16.9375 14.703125 
Q 16.9375 10.9375 17.40625 9.859375 
Q 17.875 8.796875 18.921875 8.15625 
Q 19.96875 7.515625 21.921875 7.515625 
Q 23.390625 7.515625 25.78125 7.859375 
z
" id="ArialMT-116"/>
      <path d="M 42.09375 16.703125 
L 51.171875 15.578125 
Q 49.03125 7.625 43.21875 3.21875 
Q 37.40625 -1.171875 28.375 -1.171875 
Q 17 -1.171875 10.328125 5.828125 
Q 3.65625 12.84375 3.65625 25.484375 
Q 3.65625 38.578125 10.390625 45.796875 
Q 17.140625 53.03125 27.875 53.03125 
Q 38.28125 53.03125 44.875 45.953125 
Q 51.46875 38.875 51.46875 26.03125 
Q 51.46875 25.25 51.421875 23.6875 
L 12.75 23.6875 
Q 13.234375 15.140625 17.578125 10.59375 
Q 21.921875 6.0625 28.421875 6.0625 
Q 33.25 6.0625 36.671875 8.59375 
Q 40.09375 11.140625 42.09375 16.703125 
z
M 13.234375 30.90625 
L 42.1875 30.90625 
Q 41.609375 37.453125 38.875 40.71875 
Q 34.671875 45.796875 27.984375 45.796875 
Q 21.921875 45.796875 17.796875 41.75 
Q 13.671875 37.703125 13.234375 30.90625 
z
" id="ArialMT-101"/>
      <path d="M 6.59375 0 
L 6.59375 51.859375 
L 14.5 51.859375 
L 14.5 44.484375 
Q 20.21875 53.03125 31 53.03125 
Q 35.6875 53.03125 39.625 51.34375 
Q 43.5625 49.65625 45.515625 46.921875 
Q 47.46875 44.1875 48.25 40.4375 
Q 48.734375 37.984375 48.734375 31.890625 
L 48.734375 0 
L 39.9375 0 
L 39.9375 31.546875 
Q 39.9375 36.921875 38.90625 39.578125 
Q 37.890625 42.234375 35.28125 43.8125 
Q 32.671875 45.40625 29.15625 45.40625 
Q 23.53125 45.40625 19.453125 41.84375 
Q 15.375 38.28125 15.375 28.328125 
L 15.375 0 
z
" id="ArialMT-110"/>
      <path d="M 6.640625 61.46875 
L 6.640625 71.578125 
L 15.4375 71.578125 
L 15.4375 61.46875 
z
M 6.640625 0 
L 6.640625 51.859375 
L 15.4375 51.859375 
L 15.4375 0 
z
" id="ArialMT-105"/>
      <path d="M 40.4375 6.390625 
Q 35.546875 2.25 31.03125 0.53125 
Q 26.515625 -1.171875 21.34375 -1.171875 
Q 12.796875 -1.171875 8.203125 3 
Q 3.609375 7.171875 3.609375 13.671875 
Q 3.609375 17.484375 5.34375 20.625 
Q 7.078125 23.78125 9.890625 25.6875 
Q 12.703125 27.59375 16.21875 28.5625 
Q 18.796875 29.25 24.03125 29.890625 
Q 34.671875 31.15625 39.703125 32.90625 
Q 39.75 34.71875 39.75 35.203125 
Q 39.75 40.578125 37.25 42.78125 
Q 33.890625 45.75 27.25 45.75 
Q 21.046875 45.75 18.09375 43.578125 
Q 15.140625 41.40625 13.71875 35.890625 
L 5.125 37.0625 
Q 6.296875 42.578125 8.984375 45.96875 
Q 11.671875 49.359375 16.75 51.1875 
Q 21.828125 53.03125 28.515625 53.03125 
Q 35.15625 53.03125 39.296875 51.46875 
Q 43.453125 49.90625 45.40625 47.53125 
Q 47.359375 45.171875 48.140625 41.546875 
Q 48.578125 39.3125 48.578125 33.453125 
L 48.578125 21.734375 
Q 48.578125 9.46875 49.140625 6.21875 
Q 49.703125 2.984375 51.375 0 
L 42.1875 0 
Q 40.828125 2.734375 40.4375 6.390625 
z
M 39.703125 26.03125 
Q 34.90625 24.078125 25.34375 22.703125 
Q 19.921875 21.921875 17.671875 20.9375 
Q 15.4375 19.96875 14.203125 18.09375 
Q 12.984375 16.21875 12.984375 13.921875 
Q 12.984375 10.40625 15.640625 8.0625 
Q 18.3125 5.71875 23.4375 5.71875 
Q 28.515625 5.71875 32.46875 7.9375 
Q 36.421875 10.15625 38.28125 14.015625 
Q 39.703125 17 39.703125 22.796875 
z
" id="ArialMT-97"/>
      <path d="M 6.390625 0 
L 6.390625 71.578125 
L 15.1875 71.578125 
L 15.1875 0 
z
" id="ArialMT-108"/>
      <path id="ArialMT-32"/>
      <path d="M 27.875 0 
L 27.875 30.328125 
L 0.296875 71.578125 
L 11.8125 71.578125 
L 25.921875 50 
Q 29.828125 43.953125 33.203125 37.890625 
Q 36.421875 43.5 41.015625 50.53125 
L 54.890625 71.578125 
L 65.921875 71.578125 
L 37.359375 30.328125 
L 37.359375 0 
z
" id="ArialMT-89"/>
      <path d="M 40.234375 0 
L 40.234375 6.546875 
Q 35.296875 -1.171875 25.734375 -1.171875 
Q 19.53125 -1.171875 14.328125 2.25 
Q 9.125 5.671875 6.265625 11.796875 
Q 3.421875 17.921875 3.421875 25.875 
Q 3.421875 33.640625 6 39.96875 
Q 8.59375 46.296875 13.765625 49.65625 
Q 18.953125 53.03125 25.34375 53.03125 
Q 30.03125 53.03125 33.6875 51.046875 
Q 37.359375 49.078125 39.65625 45.90625 
L 39.65625 71.578125 
L 48.390625 71.578125 
L 48.390625 0 
z
M 12.453125 25.875 
Q 12.453125 15.921875 16.640625 10.984375 
Q 20.84375 6.0625 26.5625 6.0625 
Q 32.328125 6.0625 36.34375 10.765625 
Q 40.375 15.484375 40.375 25.140625 
Q 40.375 35.796875 36.265625 40.765625 
Q 32.171875 45.75 26.171875 45.75 
Q 20.3125 45.75 16.375 40.96875 
Q 12.453125 36.1875 12.453125 25.875 
z
" id="ArialMT-100"/>
     </defs>
     <g transform="translate(183.373125 282.56375)scale(0.12 -0.12)">
      <use xlink:href="#ArialMT-80"/>
      <use x="66.699219" xlink:href="#ArialMT-111"/>
      <use x="122.314453" xlink:href="#ArialMT-116"/>
      <use x="150.097656" xlink:href="#ArialMT-101"/>
      <use x="205.712891" xlink:href="#ArialMT-110"/>
      <use x="261.328125" xlink:href="#ArialMT-116"/>
      <use x="289.111328" xlink:href="#ArialMT-105"/>
      <use x="311.328125" xlink:href="#ArialMT-97"/>
      <use x="366.943359" xlink:href="#ArialMT-108"/>
      <use x="389.160156" xlink:href="#ArialMT-32"/>
      <use x="415.193359" xlink:href="#ArialMT-89"/>
      <use x="478.142578" xlink:href="#ArialMT-105"/>
      <use x="500.359375" xlink:href="#ArialMT-101"/>
      <use x="555.974609" xlink:href="#ArialMT-108"/>
      <use x="578.191406" xlink:href="#ArialMT-100"/>
     </g>
    </g>
   </g>
   <g id="matplotlib.axis_2">
    <g id="ytick_1">
     <g id="line2d_6">
      <defs>
       <path d="M 0 0 
L -3.5 0 
" id="mec787b9833" style="stroke:#000000;stroke-width:1.2;"/>
      </defs>
      <g>
       <use style="stroke:#000000;stroke-width:1.2;" x="54" xlink:href="#mec787b9833" y="252"/>
      </g>
     </g>
     <g id="text_7">
      <!-- 0.0 -->
      <defs>
       <path d="M 9.078125 0 
L 9.078125 10.015625 
L 19.09375 10.015625 
L 19.09375 0 
z
" id="ArialMT-46"/>
      </defs>
      <g transform="translate(30.32 256.294688)scale(0.12 -0.12)">
       <use xlink:href="#ArialMT-48"/>
       <use x="55.615234" xlink:href="#ArialMT-46"/>
       <use x="83.398438" xlink:href="#ArialMT-48"/>
      </g>
     </g>
    </g>
    <g id="ytick_2">
     <g id="line2d_7">
      <g>
       <use style="stroke:#000000;stroke-width:1.2;" x="54" xlink:href="#mec787b9833" y="204.413095"/>
      </g>
     </g>
     <g id="text_8">
      <!-- 0.1 -->
      <g transform="translate(30.32 208.707783)scale(0.12 -0.12)">
       <use xlink:href="#ArialMT-48"/>
       <use x="55.615234" xlink:href="#ArialMT-46"/>
       <use x="83.398438" xlink:href="#ArialMT-49"/>
      </g>
     </g>
    </g>
    <g id="ytick_3">
     <g id="line2d_8">
      <g>
       <use style="stroke:#000000;stroke-width:1.2;" x="54" xlink:href="#mec787b9833" y="156.826191"/>
      </g>
     </g>
     <g id="text_9">
      <!-- 0.2 -->
      <g transform="translate(30.32 161.120878)scale(0.12 -0.12)">
       <use xlink:href="#ArialMT-48"/>
       <use x="55.615234" xlink:href="#ArialMT-46"/>
       <use x="83.398438" xlink:href="#ArialMT-50"/>
      </g>
     </g>
    </g>
    <g id="ytick_4">
     <g id="line2d_9">
      <g>
       <use style="stroke:#000000;stroke-width:1.2;" x="54" xlink:href="#mec787b9833" y="109.239286"/>
      </g>
     </g>
     <g id="text_10">
      <!-- 0.3 -->
      <defs>
       <path d="M 4.203125 18.890625 
L 12.984375 20.0625 
Q 14.5 12.59375 18.140625 9.296875 
Q 21.78125 6 27 6 
Q 33.203125 6 37.46875 10.296875 
Q 41.75 14.59375 41.75 20.953125 
Q 41.75 27 37.796875 30.921875 
Q 33.84375 34.859375 27.734375 34.859375 
Q 25.25 34.859375 21.53125 33.890625 
L 22.515625 41.609375 
Q 23.390625 41.5 23.921875 41.5 
Q 29.546875 41.5 34.03125 44.421875 
Q 38.53125 47.359375 38.53125 53.46875 
Q 38.53125 58.296875 35.25 61.46875 
Q 31.984375 64.65625 26.8125 64.65625 
Q 21.6875 64.65625 18.265625 61.421875 
Q 14.84375 58.203125 13.875 51.765625 
L 5.078125 53.328125 
Q 6.6875 62.15625 12.390625 67.015625 
Q 18.109375 71.875 26.609375 71.875 
Q 32.46875 71.875 37.390625 69.359375 
Q 42.328125 66.84375 44.9375 62.5 
Q 47.5625 58.15625 47.5625 53.265625 
Q 47.5625 48.640625 45.0625 44.828125 
Q 42.578125 41.015625 37.703125 38.765625 
Q 44.046875 37.3125 47.5625 32.6875 
Q 51.078125 28.078125 51.078125 21.140625 
Q 51.078125 11.765625 44.234375 5.25 
Q 37.40625 -1.265625 26.953125 -1.265625 
Q 17.53125 -1.265625 11.296875 4.34375 
Q 5.078125 9.96875 4.203125 18.890625 
z
" id="ArialMT-51"/>
      </defs>
      <g transform="translate(30.32 113.533973)scale(0.12 -0.12)">
       <use xlink:href="#ArialMT-48"/>
       <use x="55.615234" xlink:href="#ArialMT-46"/>
       <use x="83.398438" xlink:href="#ArialMT-51"/>
      </g>
     </g>
    </g>
    <g id="ytick_5">
     <g id="line2d_10">
      <g>
       <use style="stroke:#000000;stroke-width:1.2;" x="54" xlink:href="#mec787b9833" y="61.652381"/>
      </g>
     </g>
     <g id="text_11">
      <!-- 0.4 -->
      <defs>
       <path d="M 32.328125 0 
L 32.328125 17.140625 
L 1.265625 17.140625 
L 1.265625 25.203125 
L 33.9375 71.578125 
L 41.109375 71.578125 
L 41.109375 25.203125 
L 50.78125 25.203125 
L 50.78125 17.140625 
L 41.109375 17.140625 
L 41.109375 0 
z
M 32.328125 25.203125 
L 32.328125 57.46875 
L 9.90625 25.203125 
z
" id="ArialMT-52"/>
      </defs>
      <g transform="translate(30.32 65.947069)scale(0.12 -0.12)">
       <use xlink:href="#ArialMT-48"/>
       <use x="55.615234" xlink:href="#ArialMT-46"/>
       <use x="83.398438" xlink:href="#ArialMT-52"/>
      </g>
     </g>
    </g>
   </g>
   <g id="line2d_11">
    <path clip-path="url(#pe2ef5d527c)" d="M 107.126067 251.949812 
L 115.775416 251.895356 
L 122.694895 251.659826 
L 139.993593 250.82733 
L 148.642942 250.663442 
L 152.102681 250.392499 
L 155.562421 249.866242 
L 159.02216 249.01889 
L 162.4819 247.804123 
L 165.94164 246.178515 
L 169.401379 244.089566 
L 172.861119 241.487427 
L 176.320858 238.36521 
L 179.780598 234.805639 
L 191.889686 221.683897 
L 200.539035 212.812261 
L 203.998775 208.829055 
L 207.458514 204.463171 
L 212.648124 197.386909 
L 221.297473 185.365654 
L 224.757212 180.856789 
L 228.216952 176.819128 
L 229.946822 175.09268 
L 231.676691 173.642003 
L 233.406561 172.534793 
L 235.136431 171.83839 
L 236.866301 171.613662 
L 238.596171 171.908838 
L 240.32604 172.754082 
L 242.05591 174.157438 
L 243.78578 176.102521 
L 245.51565 178.548014 
L 247.245519 181.428853 
L 248.975389 184.658833 
L 252.435129 191.739387 
L 255.894868 198.844962 
L 257.624738 202.105126 
L 259.354608 205.028359 
L 261.084478 207.532905 
L 262.814347 209.564309 
L 264.544217 211.099849 
L 266.274087 212.150592 
L 268.003957 212.760645 
L 269.733827 213.003557 
L 271.463696 212.976208 
L 276.653306 212.418768 
L 278.383176 212.454197 
L 280.113045 212.761247 
L 281.842915 213.406619 
L 283.572785 214.432078 
L 285.302655 215.853341 
L 287.032524 217.66061 
L 288.762394 219.820555 
L 290.492264 222.279526 
L 293.952004 227.804774 
L 299.141613 236.355734 
L 300.871483 238.959537 
L 302.601353 241.338682 
L 304.331222 243.456038 
L 306.061092 245.291825 
L 307.790962 246.842624 
L 309.520832 248.119103 
L 311.250701 249.142861 
L 312.980571 249.94287 
L 314.710441 250.551961 
L 316.440311 251.003733 
L 319.90005 251.559682 
L 323.35979 251.820962 
L 326.81953 251.927946 
L 326.81953 251.927946 
" style="fill:none;stroke:#1f77b4;stroke-linecap:square;stroke-width:1.5;"/>
   </g>
   <g id="line2d_12">
    <path clip-path="url(#pe2ef5d527c)" d="M 142.143987 251.934336 
L 145.486137 251.83231 
L 147.714237 251.607939 
L 149.942337 251.184657 
L 152.170437 250.513926 
L 155.512587 249.124221 
L 157.740687 248.166492 
L 159.968787 247.45109 
L 161.082837 247.25069 
L 162.196887 247.177925 
L 163.310937 247.238264 
L 164.424987 247.426888 
L 166.653087 248.121822 
L 172.223338 250.354323 
L 174.451438 250.819999 
L 175.565488 250.868657 
L 176.679538 250.769827 
L 177.793588 250.504705 
L 178.907638 250.053792 
L 180.021688 249.397833 
L 181.135738 248.519966 
L 182.249788 247.408861 
L 183.363838 246.062316 
L 184.477888 244.490615 
L 186.705988 240.787513 
L 192.276238 230.832505 
L 194.504338 227.70401 
L 196.732438 225.175029 
L 198.960539 222.773835 
L 200.074589 221.388746 
L 201.188639 219.736782 
L 202.302689 217.707343 
L 203.416739 215.191764 
L 204.530789 212.084218 
L 205.644839 208.28112 
L 206.758889 203.680637 
L 207.872939 198.184614 
L 208.986989 191.705429 
L 210.101039 184.179628 
L 211.215089 175.588674 
L 213.443189 155.517573 
L 217.899389 112.114797 
L 219.013439 103.476787 
L 220.127489 96.829171 
L 221.241539 92.565103 
L 222.355589 90.87866 
L 223.469639 91.728352 
L 224.583689 94.836222 
L 225.69774 99.724057 
L 227.92584 112.34483 
L 230.15394 124.625034 
L 231.26799 129.486303 
L 232.38204 133.219899 
L 233.49609 135.845894 
L 234.61014 137.536705 
L 235.72419 138.575161 
L 237.95229 140.091687 
L 239.06634 141.26555 
L 240.18039 143.104639 
L 241.29444 145.803657 
L 242.40849 149.46201 
L 243.52254 154.079929 
L 244.63659 159.564075 
L 246.86469 172.385096 
L 250.20684 192.555474 
L 252.43494 204.103075 
L 253.54899 208.96052 
L 254.663041 213.196432 
L 255.777091 216.864162 
L 256.891141 220.047744 
L 259.119241 225.356914 
L 261.347341 229.856451 
L 264.689491 236.066456 
L 268.031641 241.85004 
L 270.259741 245.181279 
L 271.373791 246.603295 
L 272.487841 247.836743 
L 273.601891 248.874256 
L 274.715941 249.719156 
L 275.829991 250.384376 
L 276.944041 250.890171 
L 279.172141 251.523278 
L 281.400241 251.816444 
L 283.628342 251.922884 
L 283.628342 251.922884 
" style="fill:none;stroke:#ff7f0e;stroke-linecap:square;stroke-width:1.5;"/>
   </g>
   <g id="line2d_13">
    <path clip-path="url(#pe2ef5d527c)" d="M 74.233908 251.9759 
L 77.911892 251.893998 
L 81.589875 251.602397 
L 88.945843 250.535908 
L 90.784834 250.470801 
L 92.623826 250.573803 
L 96.30181 251.117131 
L 99.979794 251.652888 
L 103.657777 251.913345 
L 109.174753 251.995386 
L 123.886687 251.963146 
L 127.564671 251.814846 
L 131.242655 251.407072 
L 140.437614 249.762382 
L 142.276606 249.113823 
L 144.115597 247.935474 
L 145.954589 246.025144 
L 147.793581 243.387064 
L 151.471565 237.424113 
L 153.310557 235.31644 
L 155.149548 234.455301 
L 156.98854 234.900596 
L 158.827532 236.310073 
L 160.666524 238.104665 
L 162.505516 239.708246 
L 164.344508 240.737826 
L 166.183499 241.073008 
L 168.022491 240.80657 
L 169.861483 240.130475 
L 173.539467 238.222446 
L 180.895434 233.926968 
L 182.734426 232.654329 
L 186.41241 229.610382 
L 188.251401 228.11642 
L 190.090393 227.001084 
L 191.929385 226.476158 
L 193.768377 226.509913 
L 195.607369 226.74713 
L 197.446361 226.563876 
L 199.285352 225.233116 
L 201.124344 222.128826 
L 202.963336 216.888625 
L 204.802328 209.472373 
L 206.64132 200.088225 
L 208.480312 189.017499 
L 210.319303 176.444851 
L 212.158295 162.435068 
L 217.675271 115.646138 
L 219.514262 102.617508 
L 221.353254 94.063276 
L 223.192246 91.445697 
L 225.031238 95.065427 
L 226.87023 103.890833 
L 232.387205 139.884965 
L 234.226197 148.649139 
L 236.065189 154.852691 
L 239.743173 163.954807 
L 241.582164 169.495049 
L 243.421156 176.657784 
L 245.260148 185.278018 
L 250.777124 213.149887 
L 252.616115 221.150663 
L 254.455107 228.053477 
L 256.294099 233.824416 
L 258.133091 238.488217 
L 259.972083 242.103448 
L 261.811075 244.771874 
L 263.650066 246.649845 
L 265.489058 247.936879 
L 267.32805 248.839778 
L 271.006034 250.111949 
L 274.684017 251.059646 
L 276.523009 251.388491 
L 278.362001 251.589018 
L 280.200993 251.651149 
L 282.039985 251.577075 
L 285.717968 251.105606 
L 289.395952 250.572677 
L 291.234944 250.470503 
L 293.073936 250.535838 
L 296.751919 251.04398 
L 300.429903 251.602397 
L 304.107887 251.893998 
L 307.78587 251.9759 
L 307.78587 251.9759 
" style="fill:none;stroke:#2ca02c;stroke-linecap:square;stroke-width:1.5;"/>
   </g>
   <g id="line2d_14">
    <path clip-path="url(#pe2ef5d527c)" d="M 69.218182 251.996869 
L 81.201002 251.869634 
L 90.787258 251.415913 
L 95.580387 251.265958 
L 107.563207 251.182647 
L 109.959771 250.902852 
L 112.356335 250.448457 
L 117.149463 249.118727 
L 126.735719 246.013502 
L 129.132283 244.936678 
L 131.528848 243.515139 
L 133.925412 241.724622 
L 141.115104 235.682957 
L 143.511668 234.145891 
L 145.908232 233.001215 
L 148.304796 232.161685 
L 157.891052 229.377089 
L 162.68418 227.637283 
L 165.080744 226.532785 
L 167.477309 225.062139 
L 169.873873 223.007936 
L 172.270437 220.178004 
L 174.667001 216.466307 
L 177.063565 211.88324 
L 179.460129 206.555788 
L 186.649821 189.036974 
L 189.046385 184.200502 
L 191.442949 180.722133 
L 193.839513 178.890928 
L 196.236077 178.627751 
L 198.632641 179.471488 
L 201.029205 180.740836 
L 203.42577 181.793122 
L 205.822334 182.235512 
L 208.218898 181.987935 
L 210.615462 181.21044 
L 215.40859 179.26118 
L 217.805154 178.782824 
L 220.201718 179.089771 
L 222.598282 180.418616 
L 224.994846 182.81936 
L 227.39141 186.12426 
L 229.787974 190.010679 
L 236.977666 202.261504 
L 246.563923 218.004367 
L 248.960487 221.731416 
L 251.357051 225.222081 
L 253.753615 228.440835 
L 256.150179 231.376057 
L 258.546743 234.012072 
L 260.943307 236.317834 
L 263.339871 238.259256 
L 265.736435 239.822566 
L 268.132999 241.032047 
L 270.529563 241.952968 
L 275.322691 243.309272 
L 282.512384 245.245595 
L 292.09864 248.19307 
L 296.891768 249.630102 
L 301.684896 250.731431 
L 306.478024 251.385473 
L 311.271152 251.728075 
L 318.460845 251.93841 
L 328.047101 251.896574 
L 347.219613 251.649437 
L 356.80587 251.808372 
L 368.78869 251.987332 
L 373.581818 251.997125 
L 373.581818 251.997125 
" style="fill:none;stroke:#d62728;stroke-linecap:square;stroke-width:1.5;"/>
   </g>
   <g id="patch_101">
    <path d="M 54 252 
L 54 34.56 
" style="fill:none;stroke:#000000;stroke-linecap:square;stroke-linejoin:miter;stroke-width:1.2;"/>
   </g>
   <g id="patch_102">
    <path d="M 388.8 252 
L 388.8 34.56 
" style="fill:none;stroke:#000000;stroke-linecap:square;stroke-linejoin:miter;stroke-width:1.2;"/>
   </g>
   <g id="patch_103">
    <path d="M 54 252 
L 388.8 252 
" style="fill:none;stroke:#000000;stroke-linecap:square;stroke-linejoin:miter;stroke-width:1.2;"/>
   </g>
   <g id="patch_104">
    <path d="M 54 34.56 
L 388.8 34.56 
" style="fill:none;stroke:#000000;stroke-linecap:square;stroke-linejoin:miter;stroke-width:1.2;"/>
   </g>
   <g id="legend_1">
    <g id="patch_105">
     <path d="M 306.25125 112.344375 
L 382.8 112.344375 
L 382.8 40.56 
L 306.25125 40.56 
z
" style="fill:#ffffff;stroke:#000000;stroke-linejoin:miter;"/>
    </g>
    <g id="patch_106">
     <path d="M 311.05125 53.949375 
L 335.05125 53.949375 
L 335.05125 45.549375 
L 311.05125 45.549375 
z
" style="fill:#1f77b4;opacity:0.4;"/>
    </g>
    <g id="text_12">
     <!-- Mn/W -->
     <defs>
      <path d="M 7.421875 0 
L 7.421875 71.578125 
L 21.6875 71.578125 
L 38.625 20.90625 
Q 40.96875 13.8125 42.046875 10.296875 
Q 43.265625 14.203125 45.84375 21.78125 
L 62.984375 71.578125 
L 75.734375 71.578125 
L 75.734375 0 
L 66.609375 0 
L 66.609375 59.90625 
L 45.796875 0 
L 37.25 0 
L 16.546875 60.9375 
L 16.546875 0 
z
" id="ArialMT-77"/>
      <path d="M 0 -1.21875 
L 20.75 72.796875 
L 27.78125 72.796875 
L 7.078125 -1.21875 
z
" id="ArialMT-47"/>
      <path d="M 20.21875 0 
L 1.21875 71.578125 
L 10.9375 71.578125 
L 21.828125 24.65625 
Q 23.578125 17.28125 24.859375 10.015625 
Q 27.59375 21.484375 28.078125 23.25 
L 41.703125 71.578125 
L 53.125 71.578125 
L 63.375 35.359375 
Q 67.234375 21.875 68.953125 10.015625 
Q 70.3125 16.796875 72.515625 25.59375 
L 83.734375 71.578125 
L 93.265625 71.578125 
L 73.640625 0 
L 64.5 0 
L 49.421875 54.546875 
Q 47.515625 61.375 47.171875 62.9375 
Q 46.046875 58.015625 45.0625 54.546875 
L 29.890625 0 
z
" id="ArialMT-87"/>
     </defs>
     <g transform="translate(344.65125 53.949375)scale(0.12 -0.12)">
      <use xlink:href="#ArialMT-77"/>
      <use x="83.300781" xlink:href="#ArialMT-110"/>
      <use x="138.916016" xlink:href="#ArialMT-47"/>
      <use x="166.699219" xlink:href="#ArialMT-87"/>
     </g>
    </g>
    <g id="patch_107">
     <path d="M 311.05125 71.07 
L 335.05125 71.07 
L 335.05125 62.67 
L 311.05125 62.67 
z
" style="fill:#ff7f0e;opacity:0.4;"/>
    </g>
    <g id="text_13">
     <!-- Li/Mg -->
     <defs>
      <path d="M 7.328125 0 
L 7.328125 71.578125 
L 16.796875 71.578125 
L 16.796875 8.453125 
L 52.046875 8.453125 
L 52.046875 0 
z
" id="ArialMT-76"/>
      <path d="M 4.984375 -4.296875 
L 13.53125 -5.5625 
Q 14.0625 -9.515625 16.5 -11.328125 
Q 19.78125 -13.765625 25.4375 -13.765625 
Q 31.546875 -13.765625 34.859375 -11.328125 
Q 38.1875 -8.890625 39.359375 -4.5 
Q 40.046875 -1.8125 39.984375 6.78125 
Q 34.234375 0 25.640625 0 
Q 14.9375 0 9.078125 7.71875 
Q 3.21875 15.4375 3.21875 26.21875 
Q 3.21875 33.640625 5.90625 39.90625 
Q 8.59375 46.1875 13.6875 49.609375 
Q 18.796875 53.03125 25.6875 53.03125 
Q 34.859375 53.03125 40.828125 45.609375 
L 40.828125 51.859375 
L 48.921875 51.859375 
L 48.921875 7.03125 
Q 48.921875 -5.078125 46.453125 -10.125 
Q 44 -15.1875 38.640625 -18.109375 
Q 33.296875 -21.046875 25.484375 -21.046875 
Q 16.21875 -21.046875 10.5 -16.875 
Q 4.78125 -12.703125 4.984375 -4.296875 
z
M 12.25 26.859375 
Q 12.25 16.65625 16.296875 11.96875 
Q 20.359375 7.28125 26.46875 7.28125 
Q 32.515625 7.28125 36.609375 11.9375 
Q 40.71875 16.609375 40.71875 26.5625 
Q 40.71875 36.078125 36.5 40.90625 
Q 32.28125 45.75 26.3125 45.75 
Q 20.453125 45.75 16.34375 40.984375 
Q 12.25 36.234375 12.25 26.859375 
z
" id="ArialMT-103"/>
     </defs>
     <g transform="translate(344.65125 71.07)scale(0.12 -0.12)">
      <use xlink:href="#ArialMT-76"/>
      <use x="55.615234" xlink:href="#ArialMT-105"/>
      <use x="77.832031" xlink:href="#ArialMT-47"/>
      <use x="105.615234" xlink:href="#ArialMT-77"/>
      <use x="188.916016" xlink:href="#ArialMT-103"/>
     </g>
    </g>
    <g id="patch_108">
     <path d="M 311.05125 88.185 
L 335.05125 88.185 
L 335.05125 79.785 
L 311.05125 79.785 
z
" style="fill:#2ca02c;opacity:0.4;"/>
    </g>
    <g id="text_14">
     <!-- La -->
     <g transform="translate(344.65125 88.185)scale(0.12 -0.12)">
      <use xlink:href="#ArialMT-76"/>
      <use x="55.615234" xlink:href="#ArialMT-97"/>
     </g>
    </g>
    <g id="patch_109">
     <path d="M 311.05125 105.159375 
L 335.05125 105.159375 
L 335.05125 96.759375 
L 311.05125 96.759375 
z
" style="fill:#d62728;opacity:0.4;"/>
    </g>
    <g id="text_15">
     <!-- others -->
     <defs>
      <path d="M 6.59375 0 
L 6.59375 71.578125 
L 15.375 71.578125 
L 15.375 45.90625 
Q 21.53125 53.03125 30.90625 53.03125 
Q 36.671875 53.03125 40.921875 50.75 
Q 45.171875 48.484375 47 44.484375 
Q 48.828125 40.484375 48.828125 32.859375 
L 48.828125 0 
L 40.046875 0 
L 40.046875 32.859375 
Q 40.046875 39.453125 37.1875 42.453125 
Q 34.328125 45.453125 29.109375 45.453125 
Q 25.203125 45.453125 21.75 43.421875 
Q 18.3125 41.40625 16.84375 37.9375 
Q 15.375 34.46875 15.375 28.375 
L 15.375 0 
z
" id="ArialMT-104"/>
      <path d="M 6.5 0 
L 6.5 51.859375 
L 14.40625 51.859375 
L 14.40625 44 
Q 17.4375 49.515625 20 51.265625 
Q 22.5625 53.03125 25.640625 53.03125 
Q 30.078125 53.03125 34.671875 50.203125 
L 31.640625 42.046875 
Q 28.421875 43.953125 25.203125 43.953125 
Q 22.3125 43.953125 20.015625 42.21875 
Q 17.71875 40.484375 16.75 37.40625 
Q 15.28125 32.71875 15.28125 27.15625 
L 15.28125 0 
z
" id="ArialMT-114"/>
      <path d="M 3.078125 15.484375 
L 11.765625 16.84375 
Q 12.5 11.625 15.84375 8.84375 
Q 19.1875 6.0625 25.203125 6.0625 
Q 31.25 6.0625 34.171875 8.515625 
Q 37.109375 10.984375 37.109375 14.3125 
Q 37.109375 17.28125 34.515625 19 
Q 32.71875 20.171875 25.53125 21.96875 
Q 15.875 24.421875 12.140625 26.203125 
Q 8.40625 27.984375 6.46875 31.125 
Q 4.546875 34.28125 4.546875 38.09375 
Q 4.546875 41.546875 6.125 44.5 
Q 7.71875 47.46875 10.453125 49.421875 
Q 12.5 50.921875 16.03125 51.96875 
Q 19.578125 53.03125 23.640625 53.03125 
Q 29.734375 53.03125 34.34375 51.265625 
Q 38.96875 49.515625 41.15625 46.5 
Q 43.359375 43.5 44.1875 38.484375 
L 35.59375 37.3125 
Q 35.015625 41.3125 32.203125 43.546875 
Q 29.390625 45.796875 24.265625 45.796875 
Q 18.21875 45.796875 15.625 43.796875 
Q 13.03125 41.796875 13.03125 39.109375 
Q 13.03125 37.40625 14.109375 36.03125 
Q 15.1875 34.625 17.484375 33.6875 
Q 18.796875 33.203125 25.25 31.453125 
Q 34.578125 28.953125 38.25 27.359375 
Q 41.9375 25.78125 44.03125 22.75 
Q 46.140625 19.734375 46.140625 15.234375 
Q 46.140625 10.84375 43.578125 6.953125 
Q 41.015625 3.078125 36.171875 0.953125 
Q 31.34375 -1.171875 25.25 -1.171875 
Q 15.140625 -1.171875 9.84375 3.03125 
Q 4.546875 7.234375 3.078125 15.484375 
z
" id="ArialMT-115"/>
     </defs>
     <g transform="translate(344.65125 105.159375)scale(0.12 -0.12)">
      <use xlink:href="#ArialMT-111"/>
      <use x="55.615234" xlink:href="#ArialMT-116"/>
      <use x="83.398438" xlink:href="#ArialMT-104"/>
      <use x="139.013672" xlink:href="#ArialMT-101"/>
      <use x="194.628906" xlink:href="#ArialMT-114"/>
      <use x="227.929688" xlink:href="#ArialMT-115"/>
     </g>
    </g>
   </g>
  </g>
 </g>
 <defs>
  <clipPath id="pe2ef5d527c">
   <rect height="217.44" width="334.8" x="54" y="34.56"/>
  </clipPath>
 </defs>
</svg>
